<?xml version="1.0" encoding="UTF-8"?>
<svg xmlns="http://www.w3.org/2000/svg" xmlns:xlink="http://www.w3.org/1999/xlink" version="1.1" viewBox="0 0 1200 800">
  <defs>
    <style>
      .cls-1, .cls-2 {
        stroke: #ffc900;
      }

      .cls-1, .cls-2, .cls-3, .cls-4, .cls-5, .cls-6, .cls-7, .cls-8 {
        fill: none;
        stroke-linecap: round;
        stroke-linejoin: round;
      }

      .cls-1, .cls-3, .cls-5, .cls-7 {
        stroke-width: 2.3px;
      }

      .cls-2, .cls-4, .cls-6, .cls-8 {
        stroke-width: 2px;
      }

      .cls-9 {
        fill: #48909c;
        font-size: 41.48px;
        letter-spacing: 0em;
      }

      .cls-9, .cls-10 {
        font-family: BebasNeueBook, BebasNeueBook;
      }

      .cls-3, .cls-4 {
        stroke: #60c0d0;
      }

      .cls-11, .cls-12 {
        fill: #60c0d0;
      }

      .cls-13 {
        fill: #9cf;
      }

      .cls-14 {
        fill: #ffc900;
      }

      .cls-15 {
        fill: url(#linear-gradient);
      }

      .cls-15, .cls-16 {
        opacity: .8;
      }

      .cls-16 {
        fill: url(#linear-gradient-2);
      }

      .cls-5, .cls-6 {
        stroke: #9cf;
      }

      .cls-17 {
        fill: #34596f;
      }

      .cls-18 {
        opacity: .4;
      }

      .cls-19 {
        opacity: .6;
      }

      .cls-10 {
        fill: #7399bf;
        font-size: 43px;
        letter-spacing: 0em;
      }

      .cls-12 {
        font-family: BebasNeueBold, BebasNeueBold;
        font-size: 75.64px;
        letter-spacing: 0em;
      }

      .cls-7, .cls-8 {
        stroke: #478cad;
      }

      .cls-20 {
        fill: #478cad;
      }
    </style>
    <linearGradient id="linear-gradient" x1="200" y1="-467.87" x2="1000" y2="-467.87" gradientUnits="userSpaceOnUse">
      <stop offset="0" stop-color="#274353" stop-opacity="0"/>
      <stop offset=".22" stop-color="#274353" stop-opacity=".05"/>
      <stop offset=".44" stop-color="#274353" stop-opacity=".19"/>
      <stop offset=".66" stop-color="#274353" stop-opacity=".44"/>
      <stop offset=".88" stop-color="#274353" stop-opacity=".77"/>
      <stop offset="1" stop-color="#274353"/>
    </linearGradient>
    <linearGradient id="linear-gradient-2" x1="0" y1="400" x2="1200" y2="400" gradientUnits="userSpaceOnUse">
      <stop offset="0" stop-color="#274353" stop-opacity="0"/>
      <stop offset=".81" stop-color="#274353"/>
    </linearGradient>
  </defs>
  <!-- Generator: Adobe Illustrator 28.6.0, SVG Export Plug-In . SVG Version: 1.2.0 Build 709)  -->
  <g>
    <g id="OBJECTS">
      <rect class="cls-17" x="200" y="-867.87" width="800" height="800"/>
      <rect class="cls-15" x="200" y="-867.87" width="800" height="800"/>
      <g class="cls-18">
        <line class="cls-5" x1="381.64" y1="-71.87" x2="381.64" y2="-327.92"/>
        <line class="cls-3" x1="395.64" y1="-71.87" x2="395.64" y2="-313.92"/>
        <line class="cls-1" x1="370.64" y1="-71.87" x2="370.64" y2="-337.92"/>
        <line class="cls-7" x1="413.64" y1="-71.87" x2="413.64" y2="-303.92"/>
        <line class="cls-3" x1="357.64" y1="-71.87" x2="357.64" y2="-344.92"/>
        <line class="cls-3" x1="441.64" y1="-71.87" x2="441.64" y2="-285.92"/>
        <line class="cls-3" x1="427.64" y1="-71.87" x2="427.64" y2="-294.92"/>
        <line class="cls-3" x1="342.64" y1="-71.87" x2="342.64" y2="-347.92"/>
        <line class="cls-5" x1="451.64" y1="-71.87" x2="451.64" y2="-273.92"/>
        <line class="cls-5" x1="329.64" y1="-71.87" x2="329.64" y2="-274.92"/>
        <line class="cls-3" x1="465.64" y1="-71.87" x2="465.64" y2="-254.92"/>
        <line class="cls-3" x1="317.64" y1="-71.87" x2="317.64" y2="-264.92"/>
        <line class="cls-3" x1="465.64" y1="-254.9" x2="548.63" y2="-313.43"/>
        <line class="cls-3" x1="548.63" y1="-313.43" x2="634.59" y2="-313.43"/>
        <line class="cls-5" x1="451.64" y1="-274.43" x2="539.63" y2="-334.43"/>
        <line class="cls-5" x1="539.63" y1="-334.43" x2="670.13" y2="-334.43"/>
        <line class="cls-5" x1="670.13" y1="-334.43" x2="728.62" y2="-427.42"/>
        <line class="cls-3" x1="441.59" y1="-286.16" x2="527.59" y2="-344.93"/>
        <line class="cls-3" x1="527.59" y1="-344.93" x2="662.63" y2="-344.93"/>
        <line class="cls-3" x1="662.63" y1="-344.93" x2="716.6" y2="-434.89"/>
        <line class="cls-7" x1="413.64" y1="-304.43" x2="506.13" y2="-367.43"/>
        <line class="cls-7" x1="506.13" y1="-367.43" x2="506.13" y2="-426.92"/>
        <line class="cls-3" x1="395.64" y1="-314.43" x2="481.64" y2="-369.43"/>
        <line class="cls-3" x1="481.64" y1="-370.43" x2="481.64" y2="-443.41"/>
        <line class="cls-5" x1="381.64" y1="-328.43" x2="469.09" y2="-380.93"/>
        <line class="cls-5" x1="469.09" y1="-380.93" x2="469.09" y2="-471.41"/>
        <line class="cls-5" x1="728.62" y1="-427.42" x2="786.78" y2="-427.42"/>
        <line class="cls-3" x1="716.6" y1="-434.89" x2="792.78" y2="-434.89"/>
        <line class="cls-3" x1="793.38" y1="-434.89" x2="793.38" y2="-610.41"/>
        <line class="cls-7" x1="506.13" y1="-427.42" x2="641.13" y2="-427.42"/>
        <line class="cls-7" x1="641.13" y1="-427.42" x2="641.13" y2="-610.41"/>
        <line class="cls-3" x1="481.64" y1="-443.17" x2="620.59" y2="-443.17"/>
        <line class="cls-3" x1="620.59" y1="-442.42" x2="620.59" y2="-661.41"/>
        <line class="cls-3" x1="620.59" y1="-661.41" x2="702.6" y2="-661.41"/>
        <g>
          <line class="cls-3" x1="702.6" y1="-661.41" x2="702.6" y2="-776.91"/>
          <path class="cls-11" d="M711.25-776.91c0-4.78-3.87-8.65-8.65-8.65s-8.65,3.87-8.65,8.65,3.87,8.65,8.65,8.65,8.65-3.87,8.65-8.65Z"/>
        </g>
        <line class="cls-7" x1="641.13" y1="-610.41" x2="734.12" y2="-610.41"/>
        <g>
          <line class="cls-7" x1="734.12" y1="-610.41" x2="734.12" y2="-661.41"/>
          <circle class="cls-20" cx="734.12" cy="-661.41" r="8.65" transform="translate(172.31 151.47) rotate(-13.33)"/>
        </g>
        <line class="cls-3" x1="634.59" y1="-313.43" x2="634.59" y2="-242.93"/>
        <g>
          <line class="cls-3" x1="634.59" y1="-242.93" x2="699.38" y2="-242.93"/>
          <path class="cls-11" d="M699.38-234.29c4.78,0,8.65-3.87,8.65-8.65s-3.87-8.65-8.65-8.65-8.65,3.87-8.65,8.65,3.87,8.65,8.65,8.65Z"/>
        </g>
        <line class="cls-5" x1="786.78" y1="-427.42" x2="786.78" y2="-380.93"/>
        <g>
          <line class="cls-5" x1="786.78" y1="-380.93" x2="839.62" y2="-380.93"/>
          <circle class="cls-13" cx="839.62" cy="-380.93" r="8.65" transform="translate(109.49 182.08) rotate(-13.23)"/>
        </g>
        <line class="cls-3" x1="793.38" y1="-610.41" x2="851.09" y2="-610.41"/>
        <g>
          <line class="cls-3" x1="851.09" y1="-610.41" x2="851.09" y2="-661.41"/>
          <circle class="cls-11" cx="851.09" cy="-661.41" r="8.65" transform="translate(117.28 128.11) rotate(-9.24)"/>
        </g>
        <line class="cls-5" x1="469.09" y1="-471.87" x2="605.13" y2="-471.87"/>
        <line class="cls-5" x1="605.13" y1="-471.87" x2="605.13" y2="-676.41"/>
        <line class="cls-5" x1="605.13" y1="-676.41" x2="687.62" y2="-676.41"/>
        <g>
          <line class="cls-5" x1="687.62" y1="-676.41" x2="687.62" y2="-808.41"/>
          <circle class="cls-13" cx="687.62" cy="-808.41" r="8.65" transform="translate(649.33 252.2) rotate(-38.32)"/>
        </g>
        <line class="cls-3" x1="427.64" y1="-294.92" x2="527.59" y2="-363.43"/>
        <line class="cls-3" x1="527.59" y1="-363.43" x2="654.63" y2="-362.43"/>
        <g>
          <line class="cls-3" x1="654.63" y1="-362.43" x2="702.6" y2="-443.17"/>
          <path class="cls-11" d="M710.03-438.76c2.44-4.11,1.09-9.41-3.02-11.85-4.11-2.44-9.41-1.09-11.85,3.02-2.44,4.11-1.09,9.41,3.02,11.85,4.11,2.44,9.41,1.09,11.85-3.02Z"/>
        </g>
        <g>
          <line class="cls-1" x1="661.6" y1="-580.36" x2="661.6" y2="-418.37"/>
          <circle class="cls-14" cx="661.6" cy="-418.37" r="8.65" transform="translate(75.79 100.83) rotate(-9.24)"/>
        </g>
        <g>
          <line class="cls-1" x1="661.6" y1="-580.36" x2="753.59" y2="-580.36"/>
          <circle class="cls-14" cx="753.59" cy="-580.36" r="8.65"/>
        </g>
        <g>
          <line class="cls-3" x1="527.59" y1="-389.91" x2="527.59" y2="-412.42"/>
          <circle class="cls-11" cx="527.59" cy="-389.91" r="8.65" transform="translate(785.32 213.38) rotate(-76.67)"/>
        </g>
        <line class="cls-3" x1="527.59" y1="-412.42" x2="646.38" y2="-412.42"/>
        <g>
          <line class="cls-3" x1="646.38" y1="-412.42" x2="646.38" y2="-389.91"/>
          <circle class="cls-11" cx="646.38" cy="-389.91" r="8.65" transform="translate(550.35 358.83) rotate(-51.59)"/>
        </g>
        <g>
          <line class="cls-3" x1="779.38" y1="-557.92" x2="779.38" y2="-451.42"/>
          <path class="cls-11" d="M770.73-557.92c0-4.78,3.87-8.65,8.65-8.65s8.65,3.87,8.65,8.65-3.87,8.65-8.65,8.65-8.65-3.87-8.65-8.65Z"/>
        </g>
        <g>
          <line class="cls-3" x1="779.38" y1="-451.42" x2="734.12" y2="-451.42"/>
          <path class="cls-11" d="M734.12-460.07c-4.78,0-8.65,3.87-8.65,8.65s3.87,8.65,8.65,8.65,8.65-3.87,8.65-8.65-3.87-8.65-8.65-8.65Z"/>
        </g>
        <line class="cls-7" x1="813.2" y1="-583.42" x2="813.2" y2="-406.42"/>
        <g>
          <line class="cls-7" x1="813.2" y1="-405.86" x2="858.62" y2="-405.86"/>
          <path class="cls-20" d="M858.62-397.21c4.78,0,8.65-3.87,8.65-8.65s-3.87-8.65-8.65-8.65-8.65,3.87-8.65,8.65,3.87,8.65,8.65,8.65Z"/>
        </g>
        <g>
          <line class="cls-7" x1="813.2" y1="-583.42" x2="858.62" y2="-583.42"/>
          <path class="cls-20" d="M858.62-574.77c4.78,0,8.65-3.87,8.65-8.65s-3.87-8.65-8.65-8.65-8.65,3.87-8.65,8.65,3.87,8.65,8.65,8.65Z"/>
        </g>
        <g>
          <line class="cls-3" x1="687.62" y1="-552.92" x2="687.62" y2="-471.87"/>
          <circle class="cls-11" cx="687.62" cy="-471.87" r="8.65"/>
        </g>
        <g>
          <line class="cls-3" x1="687.62" y1="-553.92" x2="741.83" y2="-553.92"/>
          <circle class="cls-11" cx="741.83" cy="-553.92" r="8.65" transform="translate(608.96 362.32) rotate(-45)"/>
        </g>
        <line class="cls-1" x1="370.64" y1="-338.43" x2="451.64" y2="-389.91"/>
        <line class="cls-1" x1="451.64" y1="-389.91" x2="451.64" y2="-574.14"/>
        <line class="cls-1" x1="451.64" y1="-574.14" x2="413.64" y2="-574.14"/>
        <g>
          <line class="cls-1" x1="413.64" y1="-574.14" x2="413.64" y2="-761.91"/>
          <circle class="cls-14" cx="413.64" cy="-761.91" r="8.65"/>
        </g>
        <line class="cls-3" x1="357.64" y1="-344.92" x2="432.64" y2="-393.17"/>
        <line class="cls-3" x1="432.64" y1="-394.17" x2="432.64" y2="-557.92"/>
        <line class="cls-3" x1="432.64" y1="-557.92" x2="402.64" y2="-557.92"/>
        <line class="cls-3" x1="402.64" y1="-557.92" x2="402.64" y2="-700.41"/>
        <line class="cls-3" x1="402.64" y1="-700.41" x2="342.63" y2="-700.41"/>
        <g>
          <line class="cls-3" x1="342.63" y1="-700.41" x2="342.63" y2="-808.41"/>
          <circle class="cls-11" cx="342.63" cy="-808.41" r="8.65" transform="translate(671.98 5.5) rotate(-45)"/>
        </g>
        <g>
          <line class="cls-7" x1="432.64" y1="-730.41" x2="432.64" y2="-589.42"/>
          <circle class="cls-20" cx="432.64" cy="-730.41" r="8.65" transform="translate(1043.59 -140.99) rotate(-76.67)"/>
        </g>
        <g>
          <line class="cls-7" x1="432.64" y1="-589.42" x2="493.62" y2="-589.42"/>
          <circle class="cls-20" cx="493.62" cy="-589.42" r="8.65" transform="translate(850.75 91.41) rotate(-67.62)"/>
        </g>
        <g>
          <line class="cls-3" x1="469.09" y1="-563.14" x2="469.09" y2="-482.02"/>
          <circle class="cls-11" cx="469.09" cy="-563.14" r="8.65" transform="translate(252.75 137.12) rotate(-22.63)"/>
        </g>
        <line class="cls-3" x1="469.09" y1="-482.02" x2="595.11" y2="-482.02"/>
        <g>
          <line class="cls-3" x1="595.11" y1="-482.02" x2="595.11" y2="-700.41"/>
          <path class="cls-11" d="M603.76-700.41c0-4.78-3.87-8.65-8.65-8.65s-8.65,3.87-8.65,8.65,3.87,8.65,8.65,8.65,8.65-3.87,8.65-8.65Z"/>
        </g>
        <g>
          <line class="cls-3" x1="499.35" y1="-544.42" x2="499.35" y2="-494.92"/>
          <circle class="cls-11" cx="499.35" cy="-544.42" r="8.65" transform="translate(915.01 66.3) rotate(-76.77)"/>
        </g>
        <line class="cls-3" x1="499.35" y1="-494.92" x2="573.63" y2="-494.92"/>
        <g>
          <line class="cls-3" x1="573.63" y1="-494.92" x2="573.63" y2="-629.16"/>
          <circle class="cls-11" cx="573.63" cy="-629.16" r="8.65" transform="translate(160.55 115.33) rotate(-13.33)"/>
        </g>
        <g>
          <line class="cls-3" x1="620.59" y1="-691.16" x2="668.61" y2="-691.16"/>
          <circle class="cls-11" cx="620.59" cy="-691.16" r="8.65"/>
        </g>
        <g>
          <line class="cls-3" x1="668.61" y1="-691.41" x2="668.61" y2="-764.91"/>
          <circle class="cls-11" cx="668.61" cy="-764.91" r="8.65" transform="translate(736.7 248.74) rotate(-45)"/>
        </g>
        <line class="cls-3" x1="342.74" y1="-348.68" x2="417.64" y2="-398.17"/>
        <line class="cls-3" x1="417.64" y1="-398.17" x2="417.64" y2="-544.42"/>
        <line class="cls-3" x1="417.64" y1="-544.42" x2="381.64" y2="-544.42"/>
        <line class="cls-3" x1="381.64" y1="-544.42" x2="381.64" y2="-676.41"/>
        <line class="cls-3" x1="381.64" y1="-676.41" x2="228.61" y2="-676.41"/>
        <g>
          <line class="cls-3" x1="228.61" y1="-676.41" x2="228.61" y2="-761.91"/>
          <circle class="cls-11" cx="228.61" cy="-761.91" r="8.65"/>
        </g>
        <g>
          <line class="cls-5" x1="245.45" y1="-808.41" x2="245.45" y2="-691.41"/>
          <circle class="cls-13" cx="245.45" cy="-808.41" r="8.65" transform="translate(975.83 -383.79) rotate(-76.72)"/>
        </g>
        <line class="cls-5" x1="245.75" y1="-691.41" x2="325.47" y2="-691.41"/>
        <g>
          <line class="cls-5" x1="325.47" y1="-691.41" x2="325.47" y2="-761.91"/>
          <circle class="cls-13" cx="325.47" cy="-761.91" r="8.65"/>
        </g>
        <line class="cls-5" x1="329.64" y1="-274.92" x2="310.94" y2="-284.16"/>
        <line class="cls-5" x1="310.94" y1="-284.16" x2="310.94" y2="-504.67"/>
        <line class="cls-5" x1="310.94" y1="-504.67" x2="245.74" y2="-504.67"/>
        <g>
          <line class="cls-5" x1="245.74" y1="-504.67" x2="245.75" y2="-635.91"/>
          <path class="cls-13" d="M254.39-635.91c0-4.78-3.87-8.65-8.65-8.65s-8.65,3.87-8.65,8.65,3.87,8.65,8.65,8.65,8.65-3.87,8.65-8.65Z"/>
        </g>
        <line class="cls-3" x1="317.62" y1="-264.93" x2="299.16" y2="-274.43"/>
        <line class="cls-3" x1="298.41" y1="-274.43" x2="298.41" y2="-482.02"/>
        <g>
          <line class="cls-3" x1="297.65" y1="-482.02" x2="228.61" y2="-482.02"/>
          <circle class="cls-11" cx="228.61" cy="-482.02" r="8.65"/>
        </g>
        <g>
          <line class="cls-1" x1="248.15" y1="-447.37" x2="287" y2="-447.37"/>
          <circle class="cls-14" cx="248.15" cy="-447.37" r="8.65"/>
        </g>
        <line class="cls-1" x1="287" y1="-447.37" x2="287" y2="-283.49"/>
        <g>
          <line class="cls-1" x1="287" y1="-283.54" x2="242.75" y2="-283.54"/>
          <circle class="cls-14" cx="242.75" cy="-283.54" r="8.65"/>
        </g>
        <g>
          <line class="cls-7" x1="228.61" y1="-255.91" x2="305.12" y2="-255.91"/>
          <circle class="cls-20" cx="228.61" cy="-255.91" r="8.65"/>
        </g>
        <line class="cls-7" x1="305.12" y1="-254.9" x2="305.12" y2="-71.87"/>
        <g>
          <line class="cls-3" x1="262.41" y1="-659.91" x2="263.13" y2="-522.65"/>
          <path class="cls-11" d="M253.76-659.87c-.02-4.77,3.83-8.67,8.6-8.69,4.77-.02,8.67,3.83,8.69,8.6.02,4.77-3.83,8.67-8.6,8.69-4.77.02-8.67-3.83-8.69-8.6Z"/>
        </g>
        <line class="cls-3" x1="263.13" y1="-522.65" x2="330.61" y2="-522.65"/>
        <g>
          <line class="cls-3" x1="330.61" y1="-522.65" x2="330.61" y2="-380.93"/>
          <circle class="cls-11" cx="330.61" cy="-380.93" r="8.65" transform="translate(65.47 48.16) rotate(-9.24)"/>
        </g>
        <g>
          <line class="cls-3" x1="278.34" y1="-602.92" x2="278.34" y2="-536.92"/>
          <circle class="cls-11" cx="278.34" cy="-602.92" r="8.65" transform="translate(828.88 -231.6) rotate(-80.78)"/>
        </g>
        <g>
          <line class="cls-3" x1="278.34" y1="-536.92" x2="337.63" y2="-536.92"/>
          <circle class="cls-11" cx="337.63" cy="-536.92" r="8.65" transform="translate(705.6 -20.32) rotate(-67.62)"/>
        </g>
        <g>
          <line class="cls-3" x1="285.6" y1="-648.66" x2="368.87" y2="-648.66"/>
          <circle class="cls-11" cx="285.6" cy="-648.67" r="8.65" transform="translate(542.33 11.96) rotate(-45)"/>
        </g>
        <line class="cls-3" x1="368.87" y1="-647.91" x2="368.87" y2="-562.04"/>
        <g>
          <line class="cls-3" x1="368.87" y1="-562.04" x2="315.05" y2="-562.04"/>
          <circle class="cls-11" cx="315.05" cy="-562.04" r="8.65"/>
        </g>
        <g>
          <line class="cls-3" x1="367.38" y1="-522.65" x2="402.63" y2="-522.65"/>
          <circle class="cls-11" cx="367.38" cy="-522.65" r="8.65" transform="translate(515.78 98.73) rotate(-48.54)"/>
        </g>
        <line class="cls-3" x1="402.63" y1="-522.65" x2="402.63" y2="-412.42"/>
        <g>
          <line class="cls-3" x1="402.63" y1="-412.42" x2="361.14" y2="-389.91"/>
          <path class="cls-11" d="M357.02-397.51c-4.2,2.28-5.75,7.53-3.48,11.72s7.53,5.75,11.73,3.47c4.2-2.28,5.75-7.53,3.48-11.72s-7.53-5.75-11.73-3.47Z"/>
        </g>
      </g>
      <g>
        <line class="cls-6" x1="377.64" y1="-67.87" x2="377.64" y2="-323.92"/>
        <line class="cls-4" x1="391.64" y1="-67.87" x2="391.64" y2="-309.92"/>
        <line class="cls-2" x1="366.64" y1="-67.87" x2="366.64" y2="-333.92"/>
        <line class="cls-8" x1="409.64" y1="-67.87" x2="409.64" y2="-299.92"/>
        <line class="cls-4" x1="353.64" y1="-67.87" x2="353.64" y2="-340.92"/>
        <line class="cls-4" x1="437.64" y1="-67.87" x2="437.64" y2="-281.92"/>
        <line class="cls-4" x1="423.64" y1="-67.87" x2="423.64" y2="-290.92"/>
        <line class="cls-4" x1="338.64" y1="-67.87" x2="338.64" y2="-343.92"/>
        <line class="cls-6" x1="447.64" y1="-67.87" x2="447.64" y2="-269.92"/>
        <line class="cls-6" x1="325.64" y1="-67.87" x2="325.64" y2="-270.92"/>
        <line class="cls-4" x1="461.64" y1="-67.87" x2="461.64" y2="-250.92"/>
        <line class="cls-4" x1="313.64" y1="-67.87" x2="313.64" y2="-260.92"/>
        <line class="cls-4" x1="461.64" y1="-250.9" x2="544.63" y2="-309.43"/>
        <line class="cls-4" x1="544.63" y1="-309.43" x2="630.59" y2="-309.43"/>
        <line class="cls-6" x1="447.64" y1="-270.43" x2="535.63" y2="-330.43"/>
        <line class="cls-6" x1="535.63" y1="-330.43" x2="666.13" y2="-330.43"/>
        <line class="cls-6" x1="666.13" y1="-330.43" x2="724.62" y2="-423.42"/>
        <line class="cls-4" x1="437.59" y1="-282.16" x2="523.59" y2="-340.93"/>
        <line class="cls-4" x1="523.59" y1="-340.93" x2="658.63" y2="-340.93"/>
        <line class="cls-4" x1="658.63" y1="-340.93" x2="712.6" y2="-430.89"/>
        <line class="cls-8" x1="409.64" y1="-300.43" x2="502.13" y2="-363.43"/>
        <line class="cls-8" x1="502.13" y1="-363.43" x2="502.13" y2="-422.92"/>
        <line class="cls-4" x1="391.64" y1="-310.43" x2="477.64" y2="-365.43"/>
        <line class="cls-4" x1="477.64" y1="-366.43" x2="477.64" y2="-439.41"/>
        <line class="cls-6" x1="377.64" y1="-324.43" x2="465.09" y2="-376.93"/>
        <line class="cls-6" x1="465.09" y1="-376.93" x2="465.09" y2="-467.41"/>
        <line class="cls-6" x1="724.62" y1="-423.42" x2="782.78" y2="-423.42"/>
        <line class="cls-4" x1="712.6" y1="-430.89" x2="788.78" y2="-430.89"/>
        <line class="cls-4" x1="789.38" y1="-430.89" x2="789.38" y2="-606.41"/>
        <line class="cls-8" x1="502.13" y1="-423.42" x2="637.13" y2="-423.42"/>
        <line class="cls-8" x1="637.13" y1="-423.42" x2="637.13" y2="-606.41"/>
        <line class="cls-4" x1="477.64" y1="-439.17" x2="616.59" y2="-439.17"/>
        <line class="cls-4" x1="616.59" y1="-438.42" x2="616.59" y2="-657.41"/>
        <line class="cls-4" x1="616.59" y1="-657.41" x2="698.6" y2="-657.41"/>
        <g>
          <line class="cls-4" x1="698.6" y1="-657.41" x2="698.6" y2="-772.91"/>
          <circle class="cls-11" cx="698.6" cy="-772.91" r="7.52" transform="translate(132.49 101.71) rotate(-9.2)"/>
        </g>
        <line class="cls-8" x1="637.13" y1="-606.41" x2="730.12" y2="-606.41"/>
        <g>
          <line class="cls-8" x1="730.12" y1="-606.41" x2="730.12" y2="-657.41"/>
          <circle class="cls-20" cx="730.12" cy="-657.41" r="7.52"/>
        </g>
        <line class="cls-4" x1="630.59" y1="-309.43" x2="630.59" y2="-238.93"/>
        <g>
          <line class="cls-4" x1="630.59" y1="-238.93" x2="695.38" y2="-238.93"/>
          <circle class="cls-11" cx="695.37" cy="-238.93" r="7.52" transform="translate(140.74 243.79) rotate(-22.07)"/>
        </g>
        <line class="cls-6" x1="782.78" y1="-423.42" x2="782.78" y2="-376.93"/>
        <g>
          <line class="cls-6" x1="782.78" y1="-376.93" x2="835.62" y2="-376.93"/>
          <circle class="cls-13" cx="835.62" cy="-376.93" r="7.52"/>
        </g>
        <line class="cls-4" x1="789.38" y1="-606.41" x2="847.09" y2="-606.41"/>
        <g>
          <line class="cls-4" x1="847.09" y1="-606.41" x2="847.09" y2="-657.41"/>
          <circle class="cls-11" cx="847.09" cy="-657.41" r="7.52"/>
        </g>
        <line class="cls-6" x1="465.09" y1="-467.87" x2="601.13" y2="-467.87"/>
        <line class="cls-6" x1="601.13" y1="-467.87" x2="601.13" y2="-672.41"/>
        <line class="cls-6" x1="601.13" y1="-672.41" x2="683.62" y2="-672.41"/>
        <g>
          <line class="cls-6" x1="683.62" y1="-672.41" x2="683.62" y2="-804.41"/>
          <circle class="cls-13" cx="683.62" cy="-804.41" r="7.52" transform="translate(646.43 250.6) rotate(-38.34)"/>
        </g>
        <line class="cls-4" x1="423.64" y1="-290.92" x2="523.59" y2="-359.43"/>
        <line class="cls-4" x1="523.59" y1="-359.43" x2="650.63" y2="-358.43"/>
        <g>
          <line class="cls-4" x1="650.63" y1="-358.43" x2="698.6" y2="-439.17"/>
          <path class="cls-11" d="M705.06-435.33c2.12-3.57.95-8.18-2.62-10.31-3.57-2.12-8.19-.95-10.31,2.62-2.12,3.57-.95,8.18,2.62,10.31,3.57,2.12,8.18.95,10.3-2.62Z"/>
        </g>
        <g>
          <line class="cls-2" x1="657.6" y1="-576.36" x2="657.6" y2="-414.37"/>
          <circle class="cls-14" cx="657.6" cy="-414.37" r="7.52" transform="translate(790.22 351.49) rotate(-67.61)"/>
        </g>
        <g>
          <line class="cls-2" x1="657.6" y1="-576.36" x2="749.59" y2="-576.36"/>
          <circle class="cls-14" cx="749.59" cy="-576.36" r="7.52"/>
        </g>
        <g>
          <line class="cls-4" x1="523.59" y1="-385.91" x2="523.59" y2="-408.42"/>
          <circle class="cls-11" cx="523.59" cy="-385.91" r="7.52"/>
        </g>
        <line class="cls-4" x1="523.59" y1="-408.42" x2="642.38" y2="-408.42"/>
        <g>
          <line class="cls-4" x1="642.38" y1="-408.42" x2="642.38" y2="-385.91"/>
          <path class="cls-11" d="M634.86-385.91c0,4.15,3.37,7.52,7.52,7.52s7.52-3.37,7.52-7.52-3.37-7.52-7.52-7.52-7.52,3.37-7.52,7.52Z"/>
        </g>
        <g>
          <line class="cls-4" x1="775.38" y1="-553.92" x2="775.38" y2="-447.42"/>
          <path class="cls-11" d="M767.86-553.92c0-4.15,3.37-7.52,7.52-7.52s7.52,3.37,7.52,7.52-3.37,7.52-7.52,7.52-7.52-3.37-7.52-7.52Z"/>
        </g>
        <g>
          <line class="cls-4" x1="775.38" y1="-447.42" x2="730.12" y2="-447.42"/>
          <circle class="cls-11" cx="730.12" cy="-447.42" r="7.52" transform="translate(122.79 156.24) rotate(-13.33)"/>
        </g>
        <line class="cls-8" x1="809.2" y1="-579.42" x2="809.2" y2="-402.42"/>
        <g>
          <line class="cls-8" x1="809.2" y1="-401.86" x2="854.62" y2="-401.86"/>
          <circle class="cls-20" cx="854.62" cy="-401.86" r="7.52" transform="translate(534.47 486.6) rotate(-45)"/>
        </g>
        <g>
          <line class="cls-8" x1="809.2" y1="-579.42" x2="854.62" y2="-579.42"/>
          <circle class="cls-20" cx="854.62" cy="-579.42" r="7.52" transform="translate(104.12 129.7) rotate(-9.24)"/>
        </g>
        <g>
          <line class="cls-4" x1="683.62" y1="-548.92" x2="683.62" y2="-467.87"/>
          <circle class="cls-11" cx="683.62" cy="-467.87" r="7.52"/>
        </g>
        <g>
          <line class="cls-4" x1="683.62" y1="-549.92" x2="737.83" y2="-549.92"/>
          <circle class="cls-11" cx="737.83" cy="-549.92" r="7.52" transform="translate(604.96 360.66) rotate(-45)"/>
        </g>
        <line class="cls-2" x1="366.64" y1="-334.43" x2="447.64" y2="-385.91"/>
        <line class="cls-2" x1="447.64" y1="-385.91" x2="447.64" y2="-570.14"/>
        <line class="cls-2" x1="447.64" y1="-570.14" x2="409.64" y2="-570.14"/>
        <g>
          <line class="cls-2" x1="409.64" y1="-570.14" x2="409.64" y2="-757.91"/>
          <circle class="cls-14" cx="409.64" cy="-757.91" r="7.52"/>
        </g>
        <line class="cls-4" x1="353.64" y1="-340.92" x2="428.64" y2="-389.17"/>
        <line class="cls-4" x1="428.64" y1="-390.17" x2="428.64" y2="-553.92"/>
        <line class="cls-4" x1="428.64" y1="-553.92" x2="398.64" y2="-553.92"/>
        <line class="cls-4" x1="398.64" y1="-553.92" x2="398.64" y2="-696.41"/>
        <line class="cls-4" x1="398.64" y1="-696.41" x2="338.63" y2="-696.41"/>
        <g>
          <line class="cls-4" x1="338.63" y1="-696.41" x2="338.63" y2="-804.41"/>
          <circle class="cls-11" cx="338.63" cy="-804.41" r="7.52" transform="translate(953.39 -184.88) rotate(-67.61)"/>
        </g>
        <g>
          <line class="cls-8" x1="428.64" y1="-726.41" x2="428.64" y2="-585.42"/>
          <circle class="cls-20" cx="428.64" cy="-726.41" r="7.52" transform="translate(1036.69 -141.88) rotate(-76.67)"/>
        </g>
        <g>
          <line class="cls-8" x1="428.64" y1="-585.42" x2="489.62" y2="-585.42"/>
          <circle class="cls-20" cx="489.62" cy="-585.42" r="7.52" transform="translate(100.35 71.02) rotate(-9.24)"/>
        </g>
        <g>
          <line class="cls-4" x1="465.09" y1="-559.14" x2="465.09" y2="-478.02"/>
          <circle class="cls-11" cx="465.09" cy="-559.14" r="7.52" transform="translate(942.72 -10.67) rotate(-80.8)"/>
        </g>
        <line class="cls-4" x1="465.09" y1="-478.02" x2="591.11" y2="-478.02"/>
        <g>
          <line class="cls-4" x1="591.11" y1="-478.02" x2="591.11" y2="-696.41"/>
          <circle class="cls-11" cx="591.11" cy="-696.41" r="7.52" transform="translate(665.57 214) rotate(-45)"/>
        </g>
        <g>
          <line class="cls-4" x1="495.35" y1="-540.42" x2="495.35" y2="-490.92"/>
          <circle class="cls-11" cx="495.35" cy="-540.42" r="7.52" transform="translate(907.97 65.53) rotate(-76.76)"/>
        </g>
        <line class="cls-4" x1="495.35" y1="-490.92" x2="569.63" y2="-490.92"/>
        <g>
          <line class="cls-4" x1="569.63" y1="-490.92" x2="569.63" y2="-625.16"/>
          <circle class="cls-11" cx="569.63" cy="-625.16" r="7.52" transform="translate(930.67 139.66) rotate(-67.61)"/>
        </g>
        <g>
          <line class="cls-4" x1="616.59" y1="-687.16" x2="664.61" y2="-687.16"/>
          <circle class="cls-11" cx="616.59" cy="-687.16" r="7.52"/>
        </g>
        <g>
          <line class="cls-4" x1="664.61" y1="-687.41" x2="664.61" y2="-760.91"/>
          <circle class="cls-11" cx="664.61" cy="-760.91" r="7.52" transform="translate(130.14 96.43) rotate(-9.2)"/>
        </g>
        <line class="cls-4" x1="338.74" y1="-344.68" x2="413.64" y2="-394.17"/>
        <line class="cls-4" x1="413.64" y1="-394.17" x2="413.64" y2="-540.42"/>
        <line class="cls-4" x1="413.64" y1="-540.42" x2="377.64" y2="-540.42"/>
        <line class="cls-4" x1="377.64" y1="-540.42" x2="377.64" y2="-672.41"/>
        <line class="cls-4" x1="377.64" y1="-672.41" x2="224.61" y2="-672.41"/>
        <g>
          <line class="cls-4" x1="224.61" y1="-672.41" x2="224.61" y2="-757.91"/>
          <circle class="cls-11" cx="224.61" cy="-757.91" r="7.52"/>
        </g>
        <g>
          <line class="cls-6" x1="241.45" y1="-804.41" x2="241.45" y2="-687.41"/>
          <circle class="cls-13" cx="241.45" cy="-804.41" r="7.52" transform="translate(326.21 31.17) rotate(-22.5)"/>
        </g>
        <line class="cls-6" x1="241.75" y1="-687.41" x2="321.47" y2="-687.41"/>
        <g>
          <line class="cls-6" x1="321.47" y1="-687.41" x2="321.47" y2="-757.91"/>
          <circle class="cls-13" cx="321.47" cy="-757.91" r="7.52"/>
        </g>
        <line class="cls-6" x1="325.64" y1="-270.92" x2="306.94" y2="-280.16"/>
        <line class="cls-6" x1="306.94" y1="-280.16" x2="306.94" y2="-500.67"/>
        <line class="cls-6" x1="306.94" y1="-500.67" x2="241.74" y2="-500.67"/>
        <g>
          <line class="cls-6" x1="241.74" y1="-500.67" x2="241.75" y2="-631.91"/>
          <path class="cls-13" d="M249.27-631.91c0-4.15-3.37-7.52-7.52-7.52s-7.52,3.37-7.52,7.52,3.37,7.52,7.52,7.52,7.52-3.37,7.52-7.52Z"/>
        </g>
        <line class="cls-4" x1="313.62" y1="-260.93" x2="295.16" y2="-270.43"/>
        <line class="cls-4" x1="294.41" y1="-270.43" x2="294.41" y2="-478.02"/>
        <g>
          <line class="cls-4" x1="293.65" y1="-478.02" x2="224.61" y2="-478.02"/>
          <circle class="cls-11" cx="224.61" cy="-478.02" r="7.52"/>
        </g>
        <g>
          <line class="cls-2" x1="244.15" y1="-443.37" x2="283" y2="-443.37"/>
          <circle class="cls-14" cx="244.15" cy="-443.37" r="7.52"/>
        </g>
        <line class="cls-2" x1="283" y1="-443.37" x2="283" y2="-279.49"/>
        <g>
          <line class="cls-2" x1="283" y1="-279.54" x2="238.75" y2="-279.54"/>
          <circle class="cls-14" cx="238.75" cy="-279.54" r="7.52"/>
        </g>
        <g>
          <line class="cls-8" x1="224.61" y1="-251.91" x2="301.12" y2="-251.91"/>
          <circle class="cls-20" cx="224.61" cy="-251.91" r="7.52"/>
        </g>
        <line class="cls-8" x1="301.12" y1="-250.9" x2="301.12" y2="-67.87"/>
        <g>
          <line class="cls-4" x1="258.41" y1="-655.91" x2="259.13" y2="-518.65"/>
          <path class="cls-11" d="M250.89-655.87c-.02-4.15,3.33-7.54,7.48-7.56,4.15-.02,7.54,3.33,7.56,7.48.02,4.15-3.33,7.54-7.48,7.56-4.15.02-7.54-3.33-7.56-7.48Z"/>
        </g>
        <line class="cls-4" x1="259.13" y1="-518.65" x2="326.61" y2="-518.65"/>
        <g>
          <line class="cls-4" x1="326.61" y1="-518.65" x2="326.61" y2="-376.93"/>
          <circle class="cls-11" cx="326.61" cy="-376.93" r="7.52" transform="translate(550.7 68.64) rotate(-67.61)"/>
        </g>
        <g>
          <line class="cls-4" x1="274.34" y1="-598.92" x2="274.34" y2="-532.92"/>
          <circle class="cls-11" cx="274.34" cy="-598.92" r="7.52" transform="translate(250.08 59.39) rotate(-22.5)"/>
        </g>
        <g>
          <line class="cls-4" x1="274.34" y1="-532.92" x2="333.63" y2="-532.92"/>
          <circle class="cls-11" cx="333.63" cy="-532.92" r="7.52" transform="translate(89.89 46.65) rotate(-9.24)"/>
        </g>
        <g>
          <line class="cls-4" x1="281.6" y1="-644.66" x2="364.87" y2="-644.66"/>
          <circle class="cls-11" cx="281.6" cy="-644.67" r="7.52"/>
        </g>
        <line class="cls-4" x1="364.87" y1="-643.91" x2="364.87" y2="-558.04"/>
        <g>
          <line class="cls-4" x1="364.87" y1="-558.04" x2="311.05" y2="-558.04"/>
          <circle class="cls-11" cx="311.05" cy="-558.04" r="7.52"/>
        </g>
        <g>
          <line class="cls-4" x1="363.38" y1="-518.65" x2="398.63" y2="-518.65"/>
          <circle class="cls-11" cx="363.38" cy="-518.65" r="7.52"/>
        </g>
        <line class="cls-4" x1="398.63" y1="-518.65" x2="398.63" y2="-408.42"/>
        <g>
          <line class="cls-4" x1="398.63" y1="-408.42" x2="357.14" y2="-385.91"/>
          <path class="cls-11" d="M353.55-392.52c-3.65,1.98-5,6.55-3.02,10.2,1.98,3.65,6.55,5,10.2,3.02,3.65-1.98,5-6.55,3.02-10.2-1.98-3.65-6.55-5-10.2-3.02Z"/>
        </g>
      </g>
      <g>
        <text class="cls-12" transform="translate(712.88 -180.88)"><tspan x="0" y="0">DESIGN</tspan></text>
        <text class="cls-10" transform="translate(706.47 -245.31)"><tspan x="0" y="0">TECHNOLOGY</tspan></text>
        <text class="cls-9" transform="translate(706.75 -140.46)"><tspan x="0" y="0">BACKGROUND</tspan></text>
      </g>
      <rect class="cls-17" width="1200" height="800"/>
      <rect class="cls-16" width="1200" height="800"/>
      <g class="cls-18">
        <line class="cls-5" x1="381.64" y1="796" x2="381.64" y2="539.94"/>
        <line class="cls-3" x1="395.64" y1="796" x2="395.64" y2="553.94"/>
        <line class="cls-1" x1="370.64" y1="796" x2="370.64" y2="529.94"/>
        <line class="cls-7" x1="413.64" y1="796" x2="413.64" y2="563.94"/>
        <line class="cls-3" x1="357.64" y1="796" x2="357.64" y2="522.94"/>
        <line class="cls-3" x1="441.64" y1="796" x2="441.64" y2="581.94"/>
        <line class="cls-3" x1="427.64" y1="796" x2="427.64" y2="572.94"/>
        <line class="cls-3" x1="342.64" y1="796" x2="342.64" y2="519.94"/>
        <line class="cls-5" x1="451.64" y1="796" x2="451.64" y2="593.94"/>
        <line class="cls-5" x1="329.64" y1="796" x2="329.64" y2="592.94"/>
        <line class="cls-3" x1="465.64" y1="796" x2="465.64" y2="612.94"/>
        <line class="cls-3" x1="317.64" y1="796" x2="317.64" y2="602.94"/>
        <line class="cls-3" x1="465.64" y1="612.97" x2="548.63" y2="554.44"/>
        <line class="cls-3" x1="548.63" y1="554.44" x2="634.59" y2="554.44"/>
        <line class="cls-5" x1="451.64" y1="593.43" x2="539.63" y2="533.44"/>
        <line class="cls-5" x1="539.63" y1="533.44" x2="670.13" y2="533.44"/>
        <line class="cls-5" x1="670.13" y1="533.44" x2="728.62" y2="440.44"/>
        <line class="cls-3" x1="441.59" y1="581.7" x2="527.59" y2="522.94"/>
        <line class="cls-3" x1="527.59" y1="522.94" x2="662.63" y2="522.94"/>
        <line class="cls-3" x1="662.63" y1="522.94" x2="716.6" y2="432.98"/>
        <line class="cls-7" x1="413.64" y1="563.44" x2="506.13" y2="500.44"/>
        <line class="cls-7" x1="506.13" y1="500.44" x2="506.13" y2="440.95"/>
        <line class="cls-3" x1="395.64" y1="553.44" x2="481.64" y2="498.44"/>
        <line class="cls-3" x1="481.64" y1="497.44" x2="481.64" y2="424.45"/>
        <line class="cls-5" x1="381.64" y1="539.44" x2="469.09" y2="486.94"/>
        <line class="cls-5" x1="469.09" y1="486.94" x2="469.09" y2="396.46"/>
        <line class="cls-5" x1="728.62" y1="440.44" x2="786.78" y2="440.44"/>
        <line class="cls-3" x1="716.6" y1="432.98" x2="792.78" y2="432.98"/>
        <line class="cls-3" x1="793.38" y1="432.98" x2="793.38" y2="257.45"/>
        <line class="cls-7" x1="506.13" y1="440.44" x2="641.13" y2="440.44"/>
        <line class="cls-7" x1="641.13" y1="440.44" x2="641.13" y2="257.45"/>
        <line class="cls-3" x1="481.64" y1="424.69" x2="620.59" y2="424.69"/>
        <line class="cls-3" x1="620.59" y1="425.44" x2="620.59" y2="206.45"/>
        <line class="cls-3" x1="620.59" y1="206.45" x2="702.6" y2="206.45"/>
        <g>
          <line class="cls-3" x1="702.6" y1="206.45" x2="702.6" y2="90.96"/>
          <circle class="cls-11" cx="702.6" cy="90.96" r="8.65" transform="translate(348.34 704.49) rotate(-67.37)"/>
        </g>
        <line class="cls-7" x1="641.13" y1="257.45" x2="734.12" y2="257.45"/>
        <g>
          <line class="cls-7" x1="734.12" y1="257.45" x2="734.12" y2="206.45"/>
          <circle class="cls-20" cx="734.12" cy="206.45" r="8.65" transform="translate(-27.82 174.86) rotate(-13.33)"/>
        </g>
        <line class="cls-3" x1="634.59" y1="554.44" x2="634.59" y2="624.93"/>
        <g>
          <line class="cls-3" x1="634.59" y1="624.93" x2="699.38" y2="624.93"/>
          <circle class="cls-11" cx="699.37" cy="624.93" r="8.65" transform="translate(42.99 1294.88) rotate(-87.37)"/>
        </g>
        <line class="cls-5" x1="786.78" y1="440.44" x2="786.78" y2="486.94"/>
        <g>
          <line class="cls-5" x1="786.78" y1="486.94" x2="839.62" y2="486.94"/>
          <circle class="cls-13" cx="839.62" cy="486.94" r="8.65" transform="translate(-89.17 205.12) rotate(-13.23)"/>
        </g>
        <line class="cls-3" x1="793.38" y1="257.45" x2="851.09" y2="257.45"/>
        <g>
          <line class="cls-3" x1="851.09" y1="257.45" x2="851.09" y2="206.45"/>
          <circle class="cls-11" cx="851.09" cy="206.45" r="8.65" transform="translate(-22.11 139.38) rotate(-9.24)"/>
        </g>
        <line class="cls-5" x1="469.09" y1="396" x2="605.13" y2="396"/>
        <line class="cls-5" x1="605.13" y1="396" x2="605.13" y2="191.45"/>
        <line class="cls-5" x1="605.13" y1="191.45" x2="687.62" y2="191.45"/>
        <g>
          <line class="cls-5" x1="687.62" y1="191.45" x2="687.62" y2="59.46"/>
          <circle class="cls-13" cx="687.62" cy="59.46" r="8.65" transform="translate(111.25 439.14) rotate(-38.32)"/>
        </g>
        <line class="cls-3" x1="427.64" y1="572.94" x2="527.59" y2="504.44"/>
        <line class="cls-3" x1="527.59" y1="504.44" x2="654.63" y2="505.44"/>
        <g>
          <line class="cls-3" x1="654.63" y1="505.44" x2="702.6" y2="424.69"/>
          <path class="cls-11" d="M710.03,429.11c2.44-4.11,1.09-9.41-3.02-11.85-4.11-2.44-9.41-1.09-11.85,3.02-2.44,4.11-1.09,9.41,3.02,11.85,4.11,2.44,9.41,1.09,11.85-3.02Z"/>
        </g>
        <g>
          <line class="cls-1" x1="661.6" y1="287.5" x2="661.6" y2="449.5"/>
          <circle class="cls-14" cx="661.6" cy="449.5" r="8.65" transform="translate(-63.61 112.1) rotate(-9.24)"/>
        </g>
        <g>
          <line class="cls-1" x1="661.6" y1="287.5" x2="753.59" y2="287.5"/>
          <circle class="cls-14" cx="753.59" cy="287.5" r="8.65"/>
        </g>
        <g>
          <line class="cls-3" x1="527.59" y1="477.96" x2="527.59" y2="455.44"/>
          <circle class="cls-11" cx="527.59" cy="477.96" r="8.65"/>
        </g>
        <line class="cls-3" x1="527.59" y1="455.44" x2="646.38" y2="455.44"/>
        <g>
          <line class="cls-3" x1="646.38" y1="455.44" x2="646.38" y2="477.96"/>
          <circle class="cls-11" cx="646.38" cy="477.96" r="8.65"/>
        </g>
        <g>
          <line class="cls-3" x1="779.38" y1="309.95" x2="779.38" y2="416.44"/>
          <circle class="cls-11" cx="779.38" cy="309.95" r="8.65" transform="translate(317.3 1009.94) rotate(-78.26)"/>
        </g>
        <g>
          <line class="cls-3" x1="779.38" y1="416.44" x2="734.12" y2="416.44"/>
          <circle class="cls-11" cx="734.12" cy="416.44" r="8.65" transform="translate(-76.25 180.52) rotate(-13.33)"/>
        </g>
        <line class="cls-7" x1="813.2" y1="284.45" x2="813.2" y2="461.45"/>
        <g>
          <line class="cls-7" x1="813.2" y1="462.01" x2="858.62" y2="462.01"/>
          <circle class="cls-20" cx="858.62" cy="462.01" r="8.65" transform="translate(-75.2 742.45) rotate(-45)"/>
        </g>
        <g>
          <line class="cls-7" x1="813.2" y1="284.45" x2="858.62" y2="284.45"/>
          <circle class="cls-20" cx="858.62" cy="284.45" r="8.65" transform="translate(268.73 970.14) rotate(-67.62)"/>
        </g>
        <g>
          <line class="cls-3" x1="687.62" y1="314.95" x2="687.62" y2="396"/>
          <circle class="cls-11" cx="687.62" cy="396" r="8.65" transform="translate(-98.33 505.16) rotate(-37.84)"/>
        </g>
        <g>
          <line class="cls-3" x1="687.62" y1="313.95" x2="741.83" y2="313.95"/>
          <circle class="cls-11" cx="741.83" cy="313.95" r="8.65" transform="translate(-52.17 178.15) rotate(-13.23)"/>
        </g>
        <line class="cls-1" x1="370.64" y1="529.44" x2="451.64" y2="477.96"/>
        <line class="cls-1" x1="451.64" y1="477.96" x2="451.64" y2="293.73"/>
        <line class="cls-1" x1="451.64" y1="293.73" x2="413.64" y2="293.73"/>
        <g>
          <line class="cls-1" x1="413.64" y1="293.73" x2="413.64" y2="105.96"/>
          <circle class="cls-14" cx="413.64" cy="105.96" r="8.65" transform="translate(46.23 323.52) rotate(-45)"/>
        </g>
        <line class="cls-3" x1="357.64" y1="522.94" x2="432.64" y2="474.69"/>
        <line class="cls-3" x1="432.64" y1="473.69" x2="432.64" y2="309.95"/>
        <line class="cls-3" x1="432.64" y1="309.95" x2="402.64" y2="309.95"/>
        <line class="cls-3" x1="402.64" y1="309.95" x2="402.64" y2="167.46"/>
        <line class="cls-3" x1="402.64" y1="167.46" x2="342.63" y2="167.46"/>
        <g>
          <line class="cls-3" x1="342.63" y1="167.46" x2="342.63" y2="59.46"/>
          <circle class="cls-11" cx="342.63" cy="59.46" r="8.65" transform="translate(58.31 259.69) rotate(-45)"/>
        </g>
        <g>
          <line class="cls-7" x1="432.64" y1="137.46" x2="432.64" y2="278.45"/>
          <circle class="cls-20" cx="432.64" cy="137.46" r="8.65" transform="translate(199.12 526.74) rotate(-76.67)"/>
        </g>
        <g>
          <line class="cls-7" x1="432.64" y1="278.45" x2="493.62" y2="278.45"/>
          <circle class="cls-20" cx="493.62" cy="278.45" r="8.65" transform="translate(48.22 628.9) rotate(-67.62)"/>
        </g>
        <g>
          <line class="cls-3" x1="469.09" y1="304.73" x2="469.09" y2="385.84"/>
          <circle class="cls-11" cx="469.09" cy="304.73" r="8.65" transform="translate(-81.13 203.92) rotate(-22.63)"/>
        </g>
        <line class="cls-3" x1="469.09" y1="385.84" x2="595.11" y2="385.84"/>
        <g>
          <line class="cls-3" x1="595.11" y1="385.84" x2="595.11" y2="167.46"/>
          <path class="cls-11" d="M603.76,167.46c0-4.78-3.87-8.65-8.65-8.65s-8.65,3.87-8.65,8.65,3.87,8.65,8.65,8.65,8.65-3.87,8.65-8.65Z"/>
        </g>
        <g>
          <line class="cls-3" x1="499.35" y1="323.45" x2="499.35" y2="372.95"/>
          <circle class="cls-11" cx="499.35" cy="323.45" r="8.65" transform="translate(70.19 735.5) rotate(-76.77)"/>
        </g>
        <line class="cls-3" x1="499.35" y1="372.95" x2="573.63" y2="372.95"/>
        <g>
          <line class="cls-3" x1="573.63" y1="372.95" x2="573.63" y2="238.7"/>
          <circle class="cls-11" cx="573.63" cy="238.7" r="8.65" transform="translate(-.78 475.53) rotate(-45)"/>
        </g>
        <g>
          <line class="cls-3" x1="620.59" y1="176.71" x2="668.61" y2="176.71"/>
          <circle class="cls-11" cx="620.59" cy="176.71" r="8.65"/>
        </g>
        <g>
          <line class="cls-3" x1="668.61" y1="176.46" x2="668.61" y2="102.96"/>
          <circle class="cls-11" cx="668.61" cy="102.96" r="8.65" transform="translate(123.03 502.94) rotate(-45)"/>
        </g>
        <line class="cls-3" x1="342.74" y1="519.19" x2="417.64" y2="469.7"/>
        <line class="cls-3" x1="417.64" y1="469.7" x2="417.64" y2="323.45"/>
        <line class="cls-3" x1="417.64" y1="323.45" x2="381.64" y2="323.45"/>
        <line class="cls-3" x1="381.64" y1="323.45" x2="381.64" y2="191.45"/>
        <line class="cls-3" x1="381.64" y1="191.45" x2="228.61" y2="191.45"/>
        <g>
          <line class="cls-3" x1="228.61" y1="191.45" x2="228.61" y2="105.96"/>
          <circle class="cls-11" cx="228.61" cy="105.96" r="8.65" transform="translate(-14.02 37.99) rotate(-9.22)"/>
        </g>
        <g>
          <line class="cls-5" x1="245.45" y1="59.46" x2="245.45" y2="176.46"/>
          <circle class="cls-13" cx="245.45" cy="59.46" r="8.65" transform="translate(131.18 284.68) rotate(-76.72)"/>
        </g>
        <line class="cls-5" x1="245.75" y1="176.46" x2="325.47" y2="176.46"/>
        <g>
          <line class="cls-5" x1="325.47" y1="176.46" x2="325.47" y2="105.96"/>
          <circle class="cls-13" cx="325.47" cy="105.96" r="8.65" transform="translate(-15.66 77.91) rotate(-13.33)"/>
        </g>
        <line class="cls-5" x1="329.64" y1="592.94" x2="310.94" y2="583.7"/>
        <line class="cls-5" x1="310.94" y1="583.7" x2="310.94" y2="363.2"/>
        <line class="cls-5" x1="310.94" y1="363.2" x2="245.74" y2="363.2"/>
        <g>
          <line class="cls-5" x1="245.74" y1="363.2" x2="245.75" y2="231.95"/>
          <path class="cls-13" d="M254.39,231.95c0-4.77-3.87-8.65-8.65-8.65s-8.65,3.87-8.65,8.65,3.87,8.65,8.65,8.65,8.65-3.87,8.65-8.65Z"/>
        </g>
        <line class="cls-3" x1="317.62" y1="602.93" x2="299.16" y2="593.43"/>
        <line class="cls-3" x1="298.41" y1="593.43" x2="298.41" y2="385.84"/>
        <g>
          <line class="cls-3" x1="297.65" y1="385.84" x2="228.61" y2="385.84"/>
          <circle class="cls-11" cx="228.61" cy="385.84" r="8.65"/>
        </g>
        <g>
          <line class="cls-1" x1="248.15" y1="420.5" x2="287" y2="420.5"/>
          <circle class="cls-14" cx="248.15" cy="420.5" r="8.65"/>
        </g>
        <line class="cls-1" x1="287" y1="420.5" x2="287" y2="584.38"/>
        <g>
          <line class="cls-1" x1="287" y1="584.32" x2="242.75" y2="584.32"/>
          <circle class="cls-14" cx="242.75" cy="584.32" r="8.65"/>
        </g>
        <g>
          <line class="cls-7" x1="228.61" y1="611.96" x2="305.12" y2="611.96"/>
          <circle class="cls-20" cx="228.61" cy="611.96" r="8.65"/>
        </g>
        <line class="cls-7" x1="305.12" y1="612.97" x2="305.12" y2="796"/>
        <g>
          <line class="cls-3" x1="262.41" y1="207.95" x2="263.13" y2="345.22"/>
          <path class="cls-11" d="M253.76,208c-.02-4.78,3.83-8.67,8.6-8.69,4.77-.03,8.67,3.83,8.69,8.6.02,4.78-3.83,8.67-8.6,8.69-4.77.03-8.67-3.83-8.69-8.6Z"/>
        </g>
        <line class="cls-3" x1="263.13" y1="345.22" x2="330.61" y2="345.22"/>
        <g>
          <line class="cls-3" x1="330.61" y1="345.22" x2="330.61" y2="486.94"/>
          <circle class="cls-11" cx="330.61" cy="486.94" r="8.65" transform="translate(-73.92 59.42) rotate(-9.24)"/>
        </g>
        <g>
          <line class="cls-3" x1="278.34" y1="264.95" x2="278.34" y2="330.95"/>
          <circle class="cls-11" cx="278.34" cy="264.95" r="8.65" transform="translate(-27.78 497.25) rotate(-80.78)"/>
        </g>
        <g>
          <line class="cls-3" x1="278.34" y1="330.95" x2="337.63" y2="330.95"/>
          <circle class="cls-11" cx="337.63" cy="330.95" r="8.65" transform="translate(-96.92 517.18) rotate(-67.62)"/>
        </g>
        <g>
          <line class="cls-3" x1="285.6" y1="219.2" x2="368.87" y2="219.2"/>
          <circle class="cls-11" cx="285.6" cy="219.2" r="8.65" transform="translate(-71.35 266.15) rotate(-45)"/>
        </g>
        <line class="cls-3" x1="368.87" y1="219.95" x2="368.87" y2="305.83"/>
        <g>
          <line class="cls-3" x1="368.87" y1="305.83" x2="315.05" y2="305.83"/>
          <circle class="cls-11" cx="315.05" cy="305.83" r="8.65"/>
        </g>
        <g>
          <line class="cls-3" x1="367.38" y1="345.22" x2="402.63" y2="345.22"/>
          <circle class="cls-11" cx="367.38" cy="345.22" r="8.65" transform="translate(-134.58 391.93) rotate(-48.54)"/>
        </g>
        <line class="cls-3" x1="402.63" y1="345.22" x2="402.63" y2="455.44"/>
        <g>
          <line class="cls-3" x1="402.63" y1="455.44" x2="361.14" y2="477.96"/>
          <path class="cls-11" d="M357.02,470.36c-4.2,2.28-5.75,7.53-3.48,11.73,2.28,4.2,7.53,5.75,11.73,3.48,4.2-2.28,5.75-7.53,3.48-11.73-2.28-4.2-7.53-5.75-11.73-3.48Z"/>
        </g>
      </g>
      <g>
        <line class="cls-6" x1="377.64" y1="800" x2="377.64" y2="543.94"/>
        <line class="cls-4" x1="391.64" y1="800" x2="391.64" y2="557.94"/>
        <line class="cls-2" x1="366.64" y1="800" x2="366.64" y2="533.94"/>
        <line class="cls-8" x1="409.64" y1="800" x2="409.64" y2="567.94"/>
        <line class="cls-4" x1="353.64" y1="800" x2="353.64" y2="526.94"/>
        <line class="cls-4" x1="437.64" y1="800" x2="437.64" y2="585.94"/>
        <line class="cls-4" x1="423.64" y1="800" x2="423.64" y2="576.94"/>
        <line class="cls-4" x1="338.64" y1="800" x2="338.64" y2="523.94"/>
        <line class="cls-6" x1="447.64" y1="800" x2="447.64" y2="597.94"/>
        <line class="cls-6" x1="325.64" y1="800" x2="325.64" y2="596.94"/>
        <line class="cls-4" x1="461.64" y1="800" x2="461.64" y2="616.94"/>
        <line class="cls-4" x1="313.64" y1="800" x2="313.64" y2="606.94"/>
        <line class="cls-4" x1="461.64" y1="616.97" x2="544.63" y2="558.44"/>
        <line class="cls-4" x1="544.63" y1="558.44" x2="630.59" y2="558.44"/>
        <line class="cls-6" x1="447.64" y1="597.43" x2="535.63" y2="537.44"/>
        <line class="cls-6" x1="535.63" y1="537.44" x2="666.13" y2="537.44"/>
        <line class="cls-6" x1="666.13" y1="537.44" x2="724.62" y2="444.44"/>
        <line class="cls-4" x1="437.59" y1="585.7" x2="523.59" y2="526.94"/>
        <line class="cls-4" x1="523.59" y1="526.94" x2="658.63" y2="526.94"/>
        <line class="cls-4" x1="658.63" y1="526.94" x2="712.6" y2="436.98"/>
        <line class="cls-8" x1="409.64" y1="567.44" x2="502.13" y2="504.44"/>
        <line class="cls-8" x1="502.13" y1="504.44" x2="502.13" y2="444.95"/>
        <line class="cls-4" x1="391.64" y1="557.44" x2="477.64" y2="502.44"/>
        <line class="cls-4" x1="477.64" y1="501.44" x2="477.64" y2="428.45"/>
        <line class="cls-6" x1="377.64" y1="543.44" x2="465.09" y2="490.94"/>
        <line class="cls-6" x1="465.09" y1="490.94" x2="465.09" y2="400.46"/>
        <line class="cls-6" x1="724.62" y1="444.44" x2="782.78" y2="444.44"/>
        <line class="cls-4" x1="712.6" y1="436.98" x2="788.78" y2="436.98"/>
        <line class="cls-4" x1="789.38" y1="436.98" x2="789.38" y2="261.45"/>
        <line class="cls-8" x1="502.13" y1="444.44" x2="637.13" y2="444.44"/>
        <line class="cls-8" x1="637.13" y1="444.44" x2="637.13" y2="261.45"/>
        <line class="cls-4" x1="477.64" y1="428.69" x2="616.59" y2="428.69"/>
        <line class="cls-4" x1="616.59" y1="429.44" x2="616.59" y2="210.45"/>
        <line class="cls-4" x1="616.59" y1="210.45" x2="698.6" y2="210.45"/>
        <g>
          <line class="cls-4" x1="698.6" y1="210.45" x2="698.6" y2="94.96"/>
          <circle class="cls-11" cx="698.6" cy="94.96" r="7.52" transform="translate(-6.2 112.86) rotate(-9.2)"/>
        </g>
        <line class="cls-8" x1="637.13" y1="261.45" x2="730.12" y2="261.45"/>
        <g>
          <line class="cls-8" x1="730.12" y1="261.45" x2="730.12" y2="210.45"/>
          <circle class="cls-20" cx="730.12" cy="210.45" r="7.52"/>
        </g>
        <line class="cls-4" x1="630.59" y1="558.44" x2="630.59" y2="628.93"/>
        <g>
          <line class="cls-4" x1="630.59" y1="628.93" x2="695.38" y2="628.93"/>
          <circle class="cls-11" cx="695.37" cy="628.93" r="7.52" transform="translate(-58.31 71.21) rotate(-5.63)"/>
        </g>
        <line class="cls-6" x1="782.78" y1="444.44" x2="782.78" y2="490.94"/>
        <g>
          <line class="cls-6" x1="782.78" y1="490.94" x2="835.62" y2="490.94"/>
          <circle class="cls-13" cx="835.62" cy="490.94" r="7.52"/>
        </g>
        <line class="cls-4" x1="789.38" y1="261.45" x2="847.09" y2="261.45"/>
        <g>
          <line class="cls-4" x1="847.09" y1="261.45" x2="847.09" y2="210.45"/>
          <circle class="cls-11" cx="847.09" cy="210.45" r="7.52"/>
        </g>
        <line class="cls-6" x1="465.09" y1="400" x2="601.13" y2="400"/>
        <line class="cls-6" x1="601.13" y1="400" x2="601.13" y2="195.45"/>
        <line class="cls-6" x1="601.13" y1="195.45" x2="683.62" y2="195.45"/>
        <g>
          <line class="cls-6" x1="683.62" y1="195.45" x2="683.62" y2="63.46"/>
          <circle class="cls-13" cx="683.62" cy="63.46" r="7.52" transform="translate(108.06 437.76) rotate(-38.34)"/>
        </g>
        <line class="cls-4" x1="423.64" y1="576.94" x2="523.59" y2="508.44"/>
        <line class="cls-4" x1="523.59" y1="508.44" x2="650.63" y2="509.44"/>
        <g>
          <line class="cls-4" x1="650.63" y1="509.44" x2="698.6" y2="428.69"/>
          <path class="cls-11" d="M705.06,432.53c2.12-3.57.95-8.18-2.62-10.31-3.57-2.12-8.18-.95-10.31,2.62-2.12,3.57-.95,8.18,2.62,10.31,3.57,2.12,8.18.95,10.31-2.62Z"/>
        </g>
        <g>
          <line class="cls-2" x1="657.6" y1="291.5" x2="657.6" y2="453.5"/>
          <circle class="cls-14" cx="657.6" cy="453.5" r="7.52"/>
        </g>
        <g>
          <line class="cls-2" x1="657.6" y1="291.5" x2="749.59" y2="291.5"/>
          <circle class="cls-14" cx="749.59" cy="291.5" r="7.52"/>
        </g>
        <g>
          <line class="cls-4" x1="523.59" y1="481.96" x2="523.59" y2="459.44"/>
          <circle class="cls-11" cx="523.59" cy="481.96" r="7.52"/>
        </g>
        <line class="cls-4" x1="523.59" y1="459.44" x2="642.38" y2="459.44"/>
        <g>
          <line class="cls-4" x1="642.38" y1="459.44" x2="642.38" y2="481.96"/>
          <path class="cls-11" d="M634.86,481.96c0,4.15,3.37,7.52,7.52,7.52s7.52-3.37,7.52-7.52-3.37-7.52-7.52-7.52-7.52,3.37-7.52,7.52Z"/>
        </g>
        <g>
          <line class="cls-4" x1="775.38" y1="313.95" x2="775.38" y2="420.44"/>
          <path class="cls-11" d="M767.86,313.95c0-4.15,3.37-7.52,7.52-7.52s7.52,3.37,7.52,7.52-3.37,7.52-7.52,7.52-7.52-3.37-7.52-7.52Z"/>
        </g>
        <g>
          <line class="cls-4" x1="775.38" y1="420.44" x2="730.12" y2="420.44"/>
          <circle class="cls-11" cx="730.12" cy="420.44" r="7.52" transform="translate(-77.25 179.61) rotate(-13.33)"/>
        </g>
        <line class="cls-8" x1="809.2" y1="288.45" x2="809.2" y2="465.45"/>
        <g>
          <line class="cls-8" x1="809.2" y1="466.01" x2="854.62" y2="466.01"/>
          <circle class="cls-20" cx="854.62" cy="466.01" r="7.52" transform="translate(-79.2 740.79) rotate(-45)"/>
        </g>
        <g>
          <line class="cls-8" x1="809.2" y1="288.45" x2="854.62" y2="288.45"/>
          <circle class="cls-20" cx="854.62" cy="288.45" r="7.52" transform="translate(-35.23 140.96) rotate(-9.24)"/>
        </g>
        <g>
          <line class="cls-4" x1="683.62" y1="318.95" x2="683.62" y2="400"/>
          <circle class="cls-11" cx="683.62" cy="400" r="7.52"/>
        </g>
        <g>
          <line class="cls-4" x1="683.62" y1="317.95" x2="737.83" y2="317.95"/>
          <circle class="cls-11" cx="737.83" cy="317.95" r="7.52" transform="translate(-53.21 177.43) rotate(-13.24)"/>
        </g>
        <line class="cls-2" x1="366.64" y1="533.44" x2="447.64" y2="481.96"/>
        <line class="cls-2" x1="447.64" y1="481.96" x2="447.64" y2="297.73"/>
        <line class="cls-2" x1="447.64" y1="297.73" x2="409.64" y2="297.73"/>
        <g>
          <line class="cls-2" x1="409.64" y1="297.73" x2="409.64" y2="109.96"/>
          <circle class="cls-14" cx="409.64" cy="109.96" r="7.52" transform="translate(42.23 321.87) rotate(-45)"/>
        </g>
        <line class="cls-4" x1="353.64" y1="526.94" x2="428.64" y2="478.69"/>
        <line class="cls-4" x1="428.64" y1="477.69" x2="428.64" y2="313.95"/>
        <line class="cls-4" x1="428.64" y1="313.95" x2="398.64" y2="313.95"/>
        <line class="cls-4" x1="398.64" y1="313.95" x2="398.64" y2="171.46"/>
        <line class="cls-4" x1="398.64" y1="171.46" x2="338.63" y2="171.46"/>
        <g>
          <line class="cls-4" x1="338.63" y1="171.46" x2="338.63" y2="63.46"/>
          <circle class="cls-11" cx="338.63" cy="63.46" r="7.52" transform="translate(150.96 352.39) rotate(-67.61)"/>
        </g>
        <g>
          <line class="cls-8" x1="428.64" y1="141.46" x2="428.64" y2="282.45"/>
          <circle class="cls-20" cx="428.64" cy="141.46" r="7.52" transform="translate(192.19 525.95) rotate(-76.67)"/>
        </g>
        <g>
          <line class="cls-8" x1="428.64" y1="282.45" x2="489.62" y2="282.45"/>
          <circle class="cls-20" cx="489.62" cy="282.45" r="7.52" transform="translate(-39 82.28) rotate(-9.24)"/>
        </g>
        <g>
          <line class="cls-4" x1="465.09" y1="308.73" x2="465.09" y2="389.84"/>
          <circle class="cls-11" cx="465.09" cy="308.73" r="7.52" transform="translate(86.01 718.51) rotate(-80.8)"/>
        </g>
        <line class="cls-4" x1="465.09" y1="389.84" x2="591.11" y2="389.84"/>
        <g>
          <line class="cls-4" x1="591.11" y1="389.84" x2="591.11" y2="171.46"/>
          <circle class="cls-11" cx="591.11" cy="171.46" r="7.52" transform="translate(51.89 468.2) rotate(-45)"/>
        </g>
        <g>
          <line class="cls-4" x1="495.35" y1="327.45" x2="495.35" y2="376.95"/>
          <circle class="cls-11" cx="495.35" cy="327.45" r="7.52" transform="translate(63.16 734.65) rotate(-76.76)"/>
        </g>
        <line class="cls-4" x1="495.35" y1="376.95" x2="569.63" y2="376.95"/>
        <g>
          <line class="cls-4" x1="569.63" y1="376.95" x2="569.63" y2="242.7"/>
          <circle class="cls-11" cx="569.63" cy="242.7" r="7.52" transform="translate(-31.46 94.15) rotate(-9.2)"/>
        </g>
        <g>
          <line class="cls-4" x1="616.59" y1="180.71" x2="664.61" y2="180.71"/>
          <circle class="cls-11" cx="616.59" cy="180.71" r="7.52"/>
        </g>
        <g>
          <line class="cls-4" x1="664.61" y1="180.46" x2="664.61" y2="106.96"/>
          <circle class="cls-11" cx="664.61" cy="106.96" r="7.52" transform="translate(-8.55 107.58) rotate(-9.2)"/>
        </g>
        <line class="cls-4" x1="338.74" y1="523.19" x2="413.64" y2="473.7"/>
        <line class="cls-4" x1="413.64" y1="473.7" x2="413.64" y2="327.45"/>
        <line class="cls-4" x1="413.64" y1="327.45" x2="377.64" y2="327.45"/>
        <line class="cls-4" x1="377.64" y1="327.45" x2="377.64" y2="195.45"/>
        <line class="cls-4" x1="377.64" y1="195.45" x2="224.61" y2="195.45"/>
        <g>
          <line class="cls-4" x1="224.61" y1="195.45" x2="224.61" y2="109.96"/>
          <circle class="cls-11" cx="224.61" cy="109.96" r="7.52" transform="translate(37.07 275.39) rotate(-67.5)"/>
        </g>
        <g>
          <line class="cls-6" x1="241.45" y1="63.46" x2="241.45" y2="180.46"/>
          <circle class="cls-13" cx="241.45" cy="63.46" r="7.52" transform="translate(-5.91 97.23) rotate(-22.5)"/>
        </g>
        <line class="cls-6" x1="241.75" y1="180.46" x2="321.47" y2="180.46"/>
        <g>
          <line class="cls-6" x1="321.47" y1="180.46" x2="321.47" y2="109.96"/>
          <circle class="cls-13" cx="321.47" cy="109.96" r="7.52" transform="translate(-16.69 77.06) rotate(-13.33)"/>
        </g>
        <line class="cls-6" x1="325.64" y1="596.94" x2="306.94" y2="587.7"/>
        <line class="cls-6" x1="306.94" y1="587.7" x2="306.94" y2="367.2"/>
        <line class="cls-6" x1="306.94" y1="367.2" x2="241.74" y2="367.2"/>
        <g>
          <line class="cls-6" x1="241.74" y1="367.2" x2="241.75" y2="235.95"/>
          <path class="cls-13" d="M249.27,235.95c0-4.15-3.37-7.52-7.52-7.52s-7.52,3.37-7.52,7.52,3.37,7.52,7.52,7.52,7.52-3.37,7.52-7.52Z"/>
        </g>
        <line class="cls-4" x1="313.62" y1="606.93" x2="295.16" y2="597.43"/>
        <line class="cls-4" x1="294.41" y1="597.43" x2="294.41" y2="389.84"/>
        <g>
          <line class="cls-4" x1="293.65" y1="389.84" x2="224.61" y2="389.84"/>
          <circle class="cls-11" cx="224.61" cy="389.84" r="7.52"/>
        </g>
        <g>
          <line class="cls-2" x1="244.15" y1="424.5" x2="283" y2="424.5"/>
          <circle class="cls-14" cx="244.15" cy="424.5" r="7.52"/>
        </g>
        <line class="cls-2" x1="283" y1="424.5" x2="283" y2="588.38"/>
        <g>
          <line class="cls-2" x1="283" y1="588.32" x2="238.75" y2="588.32"/>
          <circle class="cls-14" cx="238.75" cy="588.32" r="7.52"/>
        </g>
        <g>
          <line class="cls-8" x1="224.61" y1="615.96" x2="301.12" y2="615.96"/>
          <circle class="cls-20" cx="224.61" cy="615.96" r="7.52"/>
        </g>
        <line class="cls-8" x1="301.12" y1="616.97" x2="301.12" y2="800"/>
        <g>
          <line class="cls-4" x1="258.41" y1="211.95" x2="259.13" y2="349.22"/>
          <path class="cls-11" d="M250.89,211.99c-.02-4.15,3.33-7.54,7.48-7.56,4.15-.02,7.54,3.33,7.56,7.48.02,4.15-3.33,7.54-7.48,7.56-4.15.02-7.54-3.33-7.56-7.48Z"/>
        </g>
        <line class="cls-4" x1="259.13" y1="349.22" x2="326.61" y2="349.22"/>
        <g>
          <line class="cls-4" x1="326.61" y1="349.22" x2="326.61" y2="490.94"/>
          <circle class="cls-11" cx="326.61" cy="490.94" r="7.52" transform="translate(-251.73 605.91) rotate(-67.61)"/>
        </g>
        <g>
          <line class="cls-4" x1="274.34" y1="268.95" x2="274.34" y2="334.95"/>
          <circle class="cls-11" cx="274.34" cy="268.95" r="7.52" transform="translate(-82.04 125.46) rotate(-22.5)"/>
        </g>
        <g>
          <line class="cls-4" x1="274.34" y1="334.95" x2="333.63" y2="334.95"/>
          <circle class="cls-11" cx="333.63" cy="334.95" r="7.52" transform="translate(-49.45 57.91) rotate(-9.24)"/>
        </g>
        <g>
          <line class="cls-4" x1="281.6" y1="223.2" x2="364.87" y2="223.2"/>
          <circle class="cls-11" cx="281.6" cy="223.2" r="7.52"/>
        </g>
        <line class="cls-4" x1="364.87" y1="223.95" x2="364.87" y2="309.83"/>
        <g>
          <line class="cls-4" x1="364.87" y1="309.83" x2="311.05" y2="309.83"/>
          <circle class="cls-11" cx="311.05" cy="309.83" r="7.52"/>
        </g>
        <g>
          <line class="cls-4" x1="363.38" y1="349.22" x2="398.63" y2="349.22"/>
          <circle class="cls-11" cx="363.38" cy="349.22" r="7.52"/>
        </g>
        <line class="cls-4" x1="398.63" y1="349.22" x2="398.63" y2="459.44"/>
        <g>
          <line class="cls-4" x1="398.63" y1="459.44" x2="357.14" y2="481.96"/>
          <path class="cls-11" d="M353.55,475.35c-3.65,1.98-5,6.55-3.02,10.2,1.98,3.65,6.55,5,10.2,3.02,3.65-1.98,5-6.55,3.02-10.2-1.98-3.65-6.55-5-10.2-3.02Z"/>
        </g>
      </g>
    </g>
    <g id="DESIGNED_BY_FREEPIK">
      <g class="cls-19">
        <g>
          <path class="cls-11" d="M488.49-89.66v-.26c-.35.4-.69.72-1.03.97-.34.25-.71.44-1.1.57-.4.13-.83.2-1.3.2-.62,0-1.2-.13-1.72-.39-.53-.26-.99-.64-1.37-1.12-.39-.49-.68-1.06-.88-1.72-.2-.66-.3-1.37-.3-2.14,0-1.62.4-2.89,1.19-3.79s1.83-1.36,3.12-1.36c.75,0,1.38.13,1.89.38.51.26,1.01.65,1.5,1.18v-3.83c0-.53.11-.93.32-1.21.21-.27.51-.41.91-.41s.69.12.91.38c.21.25.32.62.32,1.11v11.44c0,.49-.11.87-.34,1.11s-.52.37-.88.37-.65-.13-.88-.38c-.23-.26-.35-.62-.35-1.1ZM483.39-93.47c0,.7.11,1.3.33,1.8.22.49.52.87.9,1.12.38.25.79.38,1.24.38s.87-.12,1.25-.36c.38-.24.68-.6.9-1.09.22-.49.34-1.11.34-1.84,0-.69-.11-1.28-.34-1.78-.22-.5-.53-.88-.91-1.14-.38-.26-.8-.39-1.26-.39s-.9.13-1.27.4c-.37.27-.66.65-.87,1.16-.21.5-.31,1.09-.31,1.75Z"/>
          <path class="cls-11" d="M499.93-92.81h-5.07c0,.59.12,1.11.36,1.56.23.45.54.79.92,1.02.38.23.81.34,1.27.34.31,0,.59-.04.85-.11.26-.07.5-.19.75-.34.24-.15.46-.32.66-.5.2-.18.46-.42.79-.72.13-.11.32-.17.57-.17.27,0,.48.07.64.22.16.15.25.35.25.62,0,.23-.09.51-.27.82-.18.31-.46.61-.83.9-.37.29-.84.53-1.4.72-.56.19-1.2.29-1.93.29-1.66,0-2.96-.48-3.88-1.43-.92-.95-1.39-2.24-1.39-3.87,0-.77.11-1.48.34-2.13.23-.66.56-1.22,1-1.69.44-.47.97-.83,1.62-1.08.64-.25,1.35-.37,2.13-.37,1.01,0,1.88.21,2.61.64.73.43,1.27.98,1.63,1.66.36.68.54,1.37.54,2.07,0,.65-.19,1.07-.56,1.27-.37.19-.9.29-1.58.29ZM494.85-94.28h4.7c-.06-.89-.3-1.55-.72-1.99-.42-.44-.96-.66-1.64-.66s-1.18.22-1.59.67c-.42.45-.67,1.11-.76,1.98Z"/>
          <path class="cls-11" d="M511.74-91.57c0,.72-.17,1.33-.52,1.84-.35.51-.86.9-1.54,1.16-.68.26-1.51.39-2.48.39s-1.73-.14-2.39-.43c-.66-.29-1.16-.64-1.47-1.07-.32-.43-.47-.86-.47-1.29,0-.29.1-.53.3-.73.2-.2.46-.3.77-.3.27,0,.48.07.63.2s.29.32.42.56c.27.46.59.81.96,1.04s.87.34,1.51.34c.52,0,.95-.12,1.28-.35.33-.23.5-.5.5-.79,0-.46-.17-.79-.52-1-.34-.21-.91-.41-1.71-.6-.89-.22-1.62-.45-2.18-.7-.56-.24-1.01-.56-1.34-.96-.33-.4-.5-.89-.5-1.47,0-.52.16-1.01.47-1.47.31-.46.77-.83,1.37-1.11.6-.28,1.33-.41,2.19-.41.67,0,1.28.07,1.81.21.54.14.98.33,1.34.56.36.23.63.49.82.78.19.29.28.56.28.84,0,.3-.1.54-.3.73-.2.19-.48.29-.85.29-.27,0-.49-.08-.68-.23-.19-.15-.4-.38-.64-.68-.2-.25-.43-.46-.69-.61-.27-.15-.63-.23-1.08-.23s-.86.1-1.17.3c-.31.2-.46.45-.46.74,0,.27.11.5.34.67.23.17.54.32.92.43s.92.25,1.6.42c.8.2,1.46.43,1.97.7.51.27.89.59,1.16.96.26.37.39.79.39,1.27Z"/>
          <path class="cls-11" d="M514.39-99.92c-.36,0-.67-.11-.93-.33-.26-.22-.38-.53-.38-.94,0-.37.13-.67.39-.91.26-.24.57-.36.92-.36s.63.11.89.32c.26.22.39.53.39.94s-.13.71-.38.94c-.25.22-.55.34-.9.34ZM515.67-97.25v7.49c0,.52-.12.91-.37,1.18-.25.27-.56.4-.94.4s-.69-.14-.93-.41c-.24-.27-.36-.66-.36-1.17v-7.42c0-.51.12-.9.36-1.16.24-.26.55-.39.93-.39s.69.13.94.39c.25.26.37.62.37,1.08Z"/>
          <path class="cls-11" d="M527.03-96.82v7.53c0,.86-.09,1.6-.28,2.22-.18.62-.48,1.13-.88,1.54-.41.4-.94.71-1.59.9-.66.2-1.47.3-2.45.3-.89,0-1.69-.12-2.39-.38-.7-.25-1.24-.57-1.62-.97-.38-.39-.57-.8-.57-1.22,0-.32.11-.57.32-.77.21-.2.47-.3.78-.3.38,0,.71.17,1,.5.14.17.28.35.43.52.15.17.31.32.49.45.18.12.4.21.65.27.25.06.54.09.87.09.67,0,1.19-.09,1.56-.28.37-.19.63-.45.78-.79.15-.33.24-.69.26-1.08.03-.38.04-1,.06-1.85-.4.56-.86.98-1.38,1.28-.52.29-1.14.44-1.87.44-.87,0-1.62-.22-2.28-.66-.65-.44-1.15-1.06-1.49-1.86-.35-.8-.52-1.72-.52-2.76,0-.78.11-1.48.32-2.11.21-.63.52-1.16.91-1.59.39-.43.84-.76,1.36-.97.51-.22,1.08-.33,1.69-.33.73,0,1.37.14,1.91.42.54.28,1.04.72,1.5,1.33v-.35c0-.45.11-.8.33-1.04.22-.25.51-.37.86-.37.5,0,.83.16,1,.49.16.33.25.8.25,1.41ZM519.52-93.53c0,1.05.23,1.85.69,2.38.46.54,1.05.81,1.78.81.43,0,.84-.12,1.22-.35.38-.23.7-.58.94-1.04.24-.47.36-1.03.36-1.7,0-1.06-.23-1.88-.7-2.47-.46-.59-1.08-.88-1.84-.88s-1.33.28-1.78.85-.67,1.37-.67,2.4Z"/>
          <path class="cls-11" d="M531.15-97.29v.31c.45-.6.95-1.04,1.5-1.33.54-.28,1.16-.42,1.87-.42s1.29.15,1.83.45c.54.3.94.72,1.21,1.26.17.32.28.66.33,1.03.05.37.08.84.08,1.41v4.82c0,.52-.12.91-.36,1.18s-.55.4-.93.4-.7-.14-.94-.41c-.24-.27-.36-.66-.36-1.17v-4.32c0-.86-.12-1.51-.36-1.96-.24-.45-.71-.68-1.42-.68-.46,0-.88.14-1.26.41-.38.28-.66.66-.84,1.14-.13.39-.19,1.11-.19,2.16v3.25c0,.53-.12.92-.37,1.18-.24.26-.56.39-.95.39s-.68-.14-.92-.41c-.24-.27-.36-.66-.36-1.17v-7.49c0-.49.11-.86.32-1.11.22-.24.51-.37.88-.37.23,0,.43.05.62.16.18.11.33.27.44.48.11.22.17.48.17.79Z"/>
          <path class="cls-11" d="M546.93-92.81h-5.07c0,.59.12,1.11.36,1.56.23.45.54.79.92,1.02.38.23.81.34,1.27.34.31,0,.59-.04.85-.11.26-.07.5-.19.75-.34.24-.15.46-.32.66-.5.2-.18.46-.42.79-.72.13-.11.32-.17.57-.17.27,0,.48.07.65.22.16.15.25.35.25.62,0,.23-.09.51-.28.82-.18.31-.46.61-.83.9-.37.29-.83.53-1.4.72-.56.19-1.21.29-1.93.29-1.66,0-2.96-.48-3.88-1.43-.92-.95-1.39-2.24-1.39-3.87,0-.77.12-1.48.34-2.13.23-.66.56-1.22,1-1.69.44-.47.98-.83,1.62-1.08.64-.25,1.35-.37,2.13-.37,1.01,0,1.88.21,2.61.64.73.43,1.27.98,1.63,1.66.36.68.54,1.37.54,2.07,0,.65-.19,1.07-.56,1.27-.37.19-.9.29-1.58.29ZM541.85-94.28h4.7c-.06-.89-.3-1.55-.72-1.99-.41-.44-.96-.66-1.64-.66s-1.18.22-1.59.67c-.41.45-.66,1.11-.75,1.98Z"/>
          <path class="cls-11" d="M557.5-89.66v-.26c-.35.4-.69.72-1.03.97-.34.25-.71.44-1.1.57-.39.13-.83.2-1.3.2-.62,0-1.2-.13-1.72-.39-.53-.26-.99-.64-1.37-1.12-.39-.49-.68-1.06-.88-1.72-.2-.66-.3-1.37-.3-2.14,0-1.62.4-2.89,1.19-3.79.79-.9,1.83-1.36,3.12-1.36.75,0,1.38.13,1.89.38.51.26,1.01.65,1.5,1.18v-3.83c0-.53.11-.93.32-1.21.21-.27.51-.41.91-.41s.7.12.91.38c.21.25.32.62.32,1.11v11.44c0,.49-.11.87-.34,1.11-.23.25-.52.37-.88.37s-.65-.13-.88-.38c-.23-.26-.35-.62-.35-1.1ZM552.4-93.47c0,.7.11,1.3.33,1.8.22.49.52.87.9,1.12.38.25.79.38,1.24.38s.87-.12,1.25-.36c.38-.24.68-.6.9-1.09.22-.49.34-1.11.34-1.84,0-.69-.11-1.28-.34-1.78-.22-.5-.53-.88-.91-1.14-.38-.26-.8-.39-1.26-.39s-.9.13-1.27.4c-.37.27-.66.65-.87,1.16-.21.5-.31,1.09-.31,1.75Z"/>
          <path class="cls-11" d="M568.09-101.09v3.96c.49-.51.98-.89,1.49-1.16.51-.27,1.13-.4,1.88-.4.86,0,1.62.2,2.27.61.65.41,1.15,1,1.51,1.78.36.77.54,1.7.54,2.76,0,.79-.1,1.5-.3,2.16-.2.65-.49,1.22-.87,1.7-.38.48-.84.86-1.38,1.12-.54.26-1.14.39-1.79.39-.4,0-.78-.05-1.13-.14-.35-.1-.65-.22-.9-.38-.25-.15-.46-.31-.63-.48-.17-.16-.41-.41-.69-.74v.26c0,.49-.12.86-.35,1.11-.23.25-.53.38-.89.38s-.66-.12-.88-.38c-.22-.25-.33-.62-.33-1.11v-11.32c0-.53.11-.92.32-1.19.21-.27.51-.4.89-.4s.71.13.92.38c.21.26.32.62.32,1.1ZM568.22-93.39c0,1.03.24,1.82.71,2.38.47.55,1.09.83,1.86.83.65,0,1.21-.28,1.69-.85.47-.57.71-1.38.71-2.44,0-.68-.1-1.27-.29-1.77-.2-.49-.47-.88-.84-1.14-.36-.27-.78-.4-1.26-.4s-.93.13-1.32.4c-.39.27-.69.66-.91,1.17-.22.51-.33,1.12-.33,1.82Z"/>
          <path class="cls-11" d="M579.14-87.85l.24-.58-3.19-8.04c-.2-.46-.29-.8-.29-1.01,0-.22.06-.43.17-.62.11-.19.27-.34.47-.45.2-.12.41-.17.62-.17.37,0,.65.12.85.36.19.24.36.58.5,1.02l2.2,6.38,2.08-5.94c.16-.48.31-.86.45-1.13.13-.27.27-.46.42-.55.15-.1.36-.14.63-.14.2,0,.38.05.56.16.18.11.32.25.42.42.1.18.15.36.15.56-.03.12-.07.29-.12.51-.06.22-.13.45-.21.67l-3.38,8.85c-.29.78-.58,1.39-.85,1.83-.28.44-.65.79-1.11,1.02-.46.24-1.08.36-1.86.36s-1.33-.08-1.71-.25c-.38-.17-.57-.47-.57-.9,0-.3.09-.53.27-.69.18-.16.45-.24.8-.24.14,0,.28.02.41.06.16.04.31.06.43.06.3,0,.53-.04.7-.13.17-.09.32-.24.46-.46.14-.22.29-.54.47-.96Z"/>
        </g>
        <g>
          <path class="cls-11" d="M616.7-98.5h.62v-.78c0-.81.1-1.46.31-1.94.2-.48.56-.83,1.05-1.04.49-.22,1.16-.33,2.02-.33,1.52,0,2.27.37,2.27,1.12,0,.24-.08.44-.24.62-.15.17-.34.26-.56.26-.1,0-.28-.02-.53-.06-.24-.03-.45-.05-.62-.05-.47,0-.77.14-.91.41-.13.28-.2.67-.2,1.19v.62h.63c.99,0,1.48.3,1.48.89,0,.42-.13.69-.39.8-.26.12-.62.17-1.09.17h-.63v6.87c0,.51-.12.9-.37,1.17-.24.27-.55.41-.94.41-.37,0-.67-.13-.92-.41-.25-.27-.36-.66-.36-1.17v-6.87h-.71c-.39,0-.68-.08-.89-.26-.21-.17-.31-.4-.31-.68,0-.62.43-.93,1.3-.93"/>
          <path class="cls-11" d="M625.19-91.92v2.17c0,.52-.13.92-.37,1.18-.25.27-.56.39-.94.39s-.69-.13-.93-.4c-.24-.26-.36-.66-.36-1.17v-7.22c0-1.17.42-1.75,1.26-1.75.43,0,.74.13.93.41.19.27.29.67.32,1.21.31-.54.62-.94.95-1.21.33-.27.76-.41,1.31-.41s1.07.13,1.58.41c.52.27.77.64.77,1.09,0,.31-.11.58-.33.78-.22.21-.45.31-.71.31-.1,0-.33-.06-.69-.18-.37-.11-.69-.17-.96-.17-.38,0-.69.1-.93.3-.24.21-.43.5-.56.89-.13.39-.22.87-.27,1.4-.05.54-.07,1.2-.07,1.98"/>
          <path class="cls-11" d="M637.11-92.81h-5.07c0,.59.12,1.11.35,1.56.23.45.54.79.92,1.02.38.23.8.34,1.27.34.31,0,.59-.03.85-.11.25-.07.5-.19.75-.34.24-.15.46-.32.66-.5.2-.18.47-.42.79-.72.13-.11.32-.17.57-.17.27,0,.48.07.65.22.17.15.24.35.24.62,0,.24-.09.51-.27.82-.19.32-.46.62-.84.91-.37.29-.84.53-1.4.71-.56.19-1.21.29-1.93.29-1.67,0-2.96-.47-3.89-1.42-.92-.95-1.39-2.24-1.39-3.87,0-.77.12-1.48.35-2.13.22-.66.56-1.21,1-1.69.44-.47.97-.83,1.61-1.08.64-.25,1.35-.37,2.13-.37,1.01,0,1.88.21,2.61.64.72.42,1.27.98,1.63,1.65.36.68.54,1.37.54,2.07,0,.65-.19,1.07-.56,1.27-.37.19-.9.29-1.58.29M632.04-94.29h4.7c-.06-.88-.3-1.55-.71-1.99-.42-.44-.96-.66-1.64-.66-.65,0-1.18.22-1.59.67-.41.45-.67,1.11-.75,1.98"/>
          <path class="cls-11" d="M647.9-92.81h-5.07c0,.59.12,1.11.35,1.56.23.45.54.79.92,1.02.38.23.81.34,1.27.34.31,0,.59-.03.84-.11.26-.07.51-.19.75-.34.24-.15.46-.32.66-.5.2-.18.46-.42.79-.72.13-.11.33-.17.57-.17.27,0,.48.07.65.22.17.15.24.35.24.62,0,.24-.09.51-.27.82-.18.32-.45.62-.83.91-.37.29-.84.53-1.4.71-.56.19-1.21.29-1.93.29-1.67,0-2.96-.47-3.89-1.42-.92-.95-1.39-2.24-1.39-3.87,0-.77.12-1.48.35-2.13.23-.66.56-1.21,1-1.69.44-.47.97-.83,1.61-1.08.64-.25,1.35-.37,2.13-.37,1.01,0,1.88.21,2.61.64.72.42,1.27.98,1.62,1.65.36.68.54,1.37.54,2.07,0,.65-.19,1.07-.56,1.27-.37.19-.9.29-1.58.29M642.83-94.29h4.7c-.06-.88-.3-1.55-.71-1.99-.42-.44-.96-.66-1.64-.66s-1.18.22-1.59.67c-.41.45-.67,1.11-.75,1.98"/>
          <path class="cls-11" d="M653.58-97.27v.31c.49-.6.99-1.04,1.52-1.32.52-.28,1.12-.43,1.78-.43.79,0,1.54.21,2.21.62.67.41,1.2,1.02,1.59,1.81.39.79.59,1.73.59,2.81,0,.8-.11,1.53-.34,2.2-.22.67-.54,1.23-.93,1.68-.39.45-.86.8-1.39,1.05-.54.24-1.11.36-1.73.36-.74,0-1.36-.15-1.87-.45-.5-.29-.98-.73-1.44-1.31v3.89c0,1.14-.42,1.71-1.24,1.71-.49,0-.81-.15-.97-.44-.15-.3-.23-.72-.23-1.29v-11.19c0-.5.11-.86.32-1.11.21-.24.51-.37.88-.37s.67.12.9.38c.24.25.35.61.35,1.08M658.66-93.5c0-.68-.11-1.27-.31-1.76-.21-.49-.5-.87-.87-1.13-.37-.26-.78-.4-1.23-.4-.71,0-1.32.29-1.81.84-.49.57-.74,1.4-.74,2.49,0,1.03.24,1.83.74,2.41.49.57,1.09.86,1.81.86.43,0,.83-.12,1.2-.37.37-.25.67-.63.88-1.13.22-.5.33-1.11.33-1.82"/>
          <path class="cls-11" d="M663.88-99.93c-.36,0-.67-.11-.92-.33-.26-.22-.39-.53-.39-.94,0-.37.13-.67.4-.91.26-.23.57-.36.91-.36s.64.11.89.32c.26.22.39.53.39.95s-.13.71-.38.94c-.25.22-.55.34-.91.34M665.16-97.25v7.5c0,.52-.12.91-.37,1.17-.25.27-.56.4-.94.4s-.68-.13-.93-.41c-.23-.28-.36-.67-.36-1.17v-7.43c0-.51.12-.89.36-1.15.24-.27.55-.39.93-.39s.69.13.94.39c.25.26.37.62.37,1.08"/>
          <path class="cls-11" d="M673.52-89.36l-2.28-3.77-1.41,1.33v2.06c0,.5-.13.88-.4,1.15-.26.27-.57.41-.91.41-.4,0-.71-.13-.94-.4-.23-.26-.34-.66-.34-1.17v-11.06c0-.57.11-1.01.33-1.31.22-.3.54-.45.95-.45s.71.14.95.41c.23.27.35.67.35,1.2v6.29l2.92-3.06c.36-.38.63-.64.83-.78.19-.14.42-.21.69-.21.33,0,.59.1.82.31.21.21.32.47.32.77,0,.38-.35.89-1.05,1.52l-1.38,1.26,2.66,4.18c.19.31.34.54.42.71.08.16.13.32.13.46,0,.41-.11.73-.34.98-.22.24-.52.35-.89.35-.32,0-.56-.08-.73-.26-.17-.17-.41-.48-.7-.93"/>
          <path class="cls-11" d="M679.16-88.18c-.39,0-.73-.13-1.01-.38-.29-.25-.43-.61-.43-1.06,0-.39.14-.72.41-1,.28-.28.61-.42,1.01-.42s.74.14,1.02.41c.28.28.42.61.42,1,0,.45-.14.81-.42,1.06-.29.26-.62.39-1,.39"/>
          <path class="cls-11" d="M692.06-91.39c0,.32-.1.67-.29,1.04-.19.37-.49.72-.89,1.05-.39.33-.89.6-1.5.8-.6.2-1.28.31-2.03.31-1.61,0-2.86-.47-3.76-1.4-.9-.94-1.35-2.19-1.35-3.76,0-1.07.2-2.01.62-2.82.41-.81,1-1.45,1.78-1.89.78-.45,1.72-.67,2.79-.67.67,0,1.29.1,1.85.3.56.2,1.03.45,1.42.76.39.31.69.64.89.99.21.35.31.68.31.99s-.11.57-.34.79c-.23.21-.52.32-.84.32-.22,0-.4-.06-.54-.17-.14-.11-.3-.29-.48-.54-.32-.48-.65-.84-1-1.08-.34-.24-.78-.36-1.31-.36-.76,0-1.38.3-1.85.9-.47.6-.7,1.42-.7,2.45,0,.49.06.94.18,1.35.12.41.29.76.52,1.04.23.29.5.5.83.65.32.15.68.22,1.06.22.52,0,.97-.12,1.34-.36.38-.24.7-.61.99-1.1.16-.29.33-.52.51-.68.18-.16.41-.25.68-.25.32,0,.58.12.79.36.21.24.32.5.32.77"/>
          <path class="cls-11" d="M703.25-93.45c0,.77-.12,1.48-.36,2.14-.25.65-.59,1.21-1.05,1.68-.46.47-1,.83-1.63,1.08-.64.25-1.35.38-2.14.38s-1.49-.13-2.12-.38c-.62-.25-1.17-.62-1.63-1.08-.46-.48-.81-1.04-1.05-1.68-.23-.64-.35-1.35-.35-2.13s.12-1.51.36-2.16c.24-.65.59-1.21,1.04-1.67.45-.46.99-.82,1.63-1.07.64-.25,1.35-.38,2.12-.38s1.5.12,2.14.38c.64.25,1.18.61,1.64,1.08.46.47.8,1.03,1.04,1.67.23.65.35,1.36.35,2.14M700.65-93.45c0-1.06-.24-1.88-.7-2.47-.46-.6-1.09-.89-1.87-.89-.51,0-.96.13-1.34.39-.39.26-.68.65-.89,1.16-.21.51-.32,1.11-.32,1.8s.1,1.27.31,1.77c.21.51.5.9.89,1.17.39.27.83.4,1.35.4.78,0,1.41-.3,1.87-.89.46-.59.7-1.41.7-2.45"/>
          <path class="cls-11" d="M713.14-93.26v3.45c0,.55-.12.95-.37,1.23-.25.27-.57.41-.98.41s-.71-.14-.95-.41c-.25-.28-.37-.68-.37-1.23v-4.13c0-.65-.02-1.16-.06-1.52-.05-.35-.17-.66-.36-.88-.2-.24-.51-.35-.93-.35-.85,0-1.41.29-1.68.88-.27.58-.41,1.41-.41,2.51v3.5c0,.54-.12.95-.36,1.22-.25.27-.57.41-.96.41s-.72-.14-.97-.41c-.25-.28-.38-.69-.38-1.22v-7.42c0-.49.11-.86.34-1.11.23-.26.53-.38.89-.38s.65.12.89.36c.24.24.35.57.35.98v.25c.45-.54.93-.93,1.44-1.18.52-.26,1.08-.38,1.71-.38s1.21.13,1.68.39c.47.26.85.66,1.16,1.18.44-.53.91-.92,1.41-1.18.5-.26,1.05-.38,1.66-.38.71,0,1.32.14,1.83.42.51.28.89.68,1.15,1.2.22.47.33,1.21.33,2.22v5.06c0,.55-.12.95-.37,1.23-.25.27-.57.41-.98.41s-.71-.14-.96-.41c-.25-.28-.38-.69-.38-1.22v-4.36c0-.56-.02-1-.07-1.34-.05-.34-.18-.62-.38-.85-.21-.23-.53-.34-.95-.34-.34,0-.67.11-.97.31-.31.2-.55.48-.72.81-.19.44-.28,1.21-.28,2.32"/>
        </g>
        <g>
          <path class="cls-11" d="M592.43-94.08s0,0,0-.02c0,0,0,.01,0,.02Z"/>
          <path class="cls-11" d="M592.57-93.25h0c-.05-.24-.09-.47-.12-.7.03.23.07.47.12.7Z"/>
          <path class="cls-11" d="M593.42-90.84s-.01-.02-.02-.03c0,.01.01.02.02.03Z"/>
          <path class="cls-11" d="M593.34-91s-.04-.09-.07-.13c.02.05.04.09.07.13Z"/>
          <path class="cls-11" d="M592.81-92.32c.13.4.28.79.46,1.16-.18-.38-.33-.77-.45-1.16h0Z"/>
          <path class="cls-11" d="M602.47-104.01c.5,0,.87.04,1.29.11l.12-.76s-1.17-.36-2.71-.23l-.12-.42c.48-.1.84-.53.84-1.03,0-.58-.47-1.05-1.06-1.05s-1.06.47-1.06,1.05c0,.51.36.93.84,1.03l.13.46c-1.63.22-2.94.86-2.94.86l.23.7c.99-.33,1.85-.53,2.62-.61.76-.08,1.33-.12,1.8-.12Z"/>
          <path class="cls-11" d="M593.41-100.16h0c.04-.06.08-.11.11-.15l-.31-.23-.49-.36s-.79.74-1.4,2.05c-.03-.04-.05-.08-.09-.12-.18-.2-.44-.3-.76-.29h-.02c-.2,0-.34-.07-.43-.15.09-.11.14-.26.14-.41,0-.37-.3-.67-.67-.67s-.67.3-.67.67.3.67.67.67c.06,0,.11,0,.17-.02.16.18.43.34.81.33.2,0,.34.05.44.15.11.12.15.3.16.43h0c-.44,1.2-.31,2.68-.31,2.68l1.06.04c.02-.54.1-1.48.37-2.23.53-1.45,1.19-2.36,1.21-2.39Z"/>
          <path class="cls-11" d="M611.67-103.13c-.37,0-.67.3-.67.67,0,.06,0,.11.02.17-.18.17-.34.43-.34.81,0,.2-.05.34-.15.44-.08.08-.19.12-.3.14-.79-1.1-1.76-1.78-1.76-1.78l-.76.81c.57.52,1.16,1.17,1.73,1.99.39.56.8,1.29,1.14,2.01l1.02-.49s-.47-1.15-1.13-2.19c.11-.04.23-.1.33-.19.2-.18.3-.44.29-.76,0-.21.07-.35.15-.44.12.09.26.14.41.14.37,0,.67-.3.67-.67s-.3-.67-.67-.67Z"/>
          <path class="cls-11" d="M609.01-93.93c-1.41.69-3.73,1.59-6.78,2.02-1.2.17-2.36.23-3.43.23-1.39,0-2.62-.1-3.56-.22-1.08-.14-1.92-.3-2.43-.42.12.39.27.78.45,1.16,0,0,0,.02.01.03.02.04.04.09.07.13.02.04.04.09.06.13,0,.01.01.02.02.03.3.57.67,1.1,1.08,1.55,1.44,1.58,2.91,1.82,2.92,1.83h.02s.02.01.02.01c.01,0,1.31.42,3.29.42s3.86-.39,5.67-1.17c1.35-.69,2.62-1.74,3.25-2.67.49-.72.84-1.49,1.05-2.29.11-.43.2-1.11.15-1.82-.4.27-1.02.65-1.87,1.06Z"/>
          <path class="cls-11" d="M593.86-99.82c-.04.06-.65.92-1.14,2.25-.36,1-.35,2.44-.35,2.46h0c0,.34.02.68.06,1.01,0,0,0,.01,0,.02,0,.04.01.08.02.13.03.23.07.46.12.7.7.18,4.88,1.15,9.55.5,2.93-.41,5.15-1.27,6.5-1.93,1.12-.55,1.84-1.04,2.12-1.24-.28-1.03-1.04-2.64-1.74-3.65-2-2.87-4.17-3.6-5.28-3.78-.42-.07-.76-.11-1.24-.11-.45,0-1,.04-1.74.11-.74.08-1.57.27-2.53.6-1.35.45-2.57,1.16-3.53,2.05l-.03.03c-.14.13-.44.41-.78.84ZM606.13-100.49c.96,0,1.74.78,1.74,1.74s-.78,1.74-1.74,1.74-1.74-.78-1.74-1.74.78-1.74,1.74-1.74ZM597.89-100.56c1.56,0,2.82,1.26,2.82,2.82s-1.26,2.81-2.82,2.81-2.82-1.26-2.82-2.81,1.26-2.82,2.82-2.82Z"/>
        </g>
      </g>
    </g>
  </g>
</svg>