<?xml version="1.0" encoding="UTF-8"?>
<svg xmlns="http://www.w3.org/2000/svg" xmlns:xlink="http://www.w3.org/1999/xlink" version="1.1" viewBox="0 0 678 678">
  <defs>
    <style>
      .cls-1, .cls-2 {
        stroke: #ffc900;
      }

      .cls-1, .cls-2, .cls-3, .cls-4, .cls-5, .cls-6, .cls-7, .cls-8 {
        fill: none;
        stroke-linecap: round;
        stroke-linejoin: round;
      }

      .cls-1, .cls-3, .cls-5, .cls-7 {
        stroke-width: 2.3px;
      }

      .cls-2, .cls-4, .cls-6, .cls-8 {
        stroke-width: 2px;
      }

      .cls-3, .cls-4 {
        stroke: #60c0d0;
      }

      .cls-9 {
        fill: #60c0d0;
      }

      .cls-10 {
        fill: #9cf;
      }

      .cls-11 {
        fill: #ffc900;
      }

      .cls-5, .cls-6 {
        stroke: #9cf;
      }

      .cls-12 {
        fill: #34596f;
      }

      .cls-13 {
        opacity: .4;
      }

      .cls-7, .cls-8 {
        stroke: #478cad;
      }

      .cls-14 {
        fill: url(#linear-gradient);
        isolation: isolate;
        opacity: .8;
      }

      .cls-15 {
        fill: #478cad;
      }
    </style>
    <linearGradient id="linear-gradient" x1="-2" y1="390.5" x2="680" y2="390.5" gradientTransform="translate(0 729) scale(1 -1)" gradientUnits="userSpaceOnUse">
      <stop offset="0" stop-color="#274353" stop-opacity="0"/>
      <stop offset=".2" stop-color="#274353" stop-opacity="0"/>
      <stop offset=".4" stop-color="#274353" stop-opacity=".2"/>
      <stop offset=".7" stop-color="#274353" stop-opacity=".4"/>
      <stop offset=".9" stop-color="#274353" stop-opacity=".8"/>
      <stop offset="1" stop-color="#274353"/>
    </linearGradient>
  </defs>
  <!-- Generator: Adobe Illustrator 28.6.0, SVG Export Plug-In . SVG Version: 1.2.0 Build 709)  -->
  <g>
    <g id="Layer_1">
      <g id="OBJECTS">
        <rect class="cls-12" x="-2" y="-2.5" width="682" height="682"/>
        <rect class="cls-14" x="-2" y="-2.5" width="682" height="682"/>
        <g class="cls-13">
          <line class="cls-5" x1="179.6" y1="675.5" x2="179.6" y2="504.6"/>
          <line class="cls-3" x1="193.6" y1="675.5" x2="193.6" y2="518.6"/>
          <line class="cls-1" x1="168.6" y1="675.5" x2="168.6" y2="494.6"/>
          <line class="cls-7" x1="211.6" y1="675.5" x2="211.6" y2="528.6"/>
          <line class="cls-3" x1="155.6" y1="675.5" x2="155.6" y2="487.6"/>
          <line class="cls-3" x1="239.6" y1="675.5" x2="239.6" y2="546.6"/>
          <line class="cls-3" x1="225.6" y1="675.5" x2="225.6" y2="537.6"/>
          <line class="cls-3" x1="140.6" y1="675.5" x2="140.6" y2="484.6"/>
          <line class="cls-5" x1="249.6" y1="675.5" x2="249.6" y2="558.6"/>
          <line class="cls-5" x1="127.6" y1="675.5" x2="127.6" y2="557.6"/>
          <line class="cls-3" x1="263.6" y1="675.5" x2="263.6" y2="577.6"/>
          <line class="cls-3" x1="115.6" y1="675.5" x2="115.6" y2="567.6"/>
          <line class="cls-3" x1="263.6" y1="577.6" x2="346.6" y2="519.1"/>
          <line class="cls-3" x1="346.6" y1="519.1" x2="432.6" y2="519.1"/>
          <line class="cls-5" x1="249.6" y1="558.1" x2="337.6" y2="498.1"/>
          <line class="cls-5" x1="337.6" y1="498.1" x2="468.1" y2="498.1"/>
          <line class="cls-5" x1="468.1" y1="498.1" x2="526.6" y2="405.1"/>
          <line class="cls-3" x1="239.6" y1="546.3" x2="325.6" y2="487.6"/>
          <line class="cls-3" x1="325.6" y1="487.6" x2="460.6" y2="487.6"/>
          <line class="cls-3" x1="460.6" y1="487.6" x2="514.6" y2="397.6"/>
          <line class="cls-7" x1="211.6" y1="528.1" x2="304.1" y2="465.1"/>
          <line class="cls-7" x1="304.1" y1="465.1" x2="304.1" y2="405.6"/>
          <line class="cls-3" x1="193.6" y1="518.1" x2="279.6" y2="463.1"/>
          <line class="cls-3" x1="279.6" y1="462.1" x2="279.6" y2="389.1"/>
          <line class="cls-5" x1="179.6" y1="504.1" x2="267.1" y2="451.6"/>
          <line class="cls-5" x1="267.1" y1="451.6" x2="267.1" y2="361.1"/>
          <line class="cls-5" x1="526.6" y1="405.1" x2="584.8" y2="405.1"/>
          <line class="cls-3" x1="514.6" y1="397.6" x2="590.8" y2="397.6"/>
          <line class="cls-3" x1="591.4" y1="397.6" x2="591.4" y2="222.1"/>
          <line class="cls-7" x1="304.1" y1="405.1" x2="439.1" y2="405.1"/>
          <line class="cls-7" x1="439.1" y1="405.1" x2="439.1" y2="222.1"/>
          <line class="cls-3" x1="279.6" y1="389.3" x2="418.6" y2="389.3"/>
          <line class="cls-3" x1="418.6" y1="390.1" x2="418.6" y2="171.1"/>
          <line class="cls-3" x1="418.6" y1="171.1" x2="500.6" y2="171.1"/>
          <g>
            <line class="cls-3" x1="500.6" y1="171.1" x2="500.6" y2="55.6"/>
            <path class="cls-9" d="M509.2,55.6c0-4.8-3.9-8.7-8.7-8.7s-8.7,3.9-8.7,8.7,3.9,8.7,8.7,8.7,8.7-3.9,8.7-8.7Z"/>
          </g>
          <line class="cls-7" x1="439.1" y1="222.1" x2="532.1" y2="222.1"/>
          <g>
            <line class="cls-7" x1="532.1" y1="222.1" x2="532.1" y2="171.1"/>
            <circle class="cls-15" cx="532.2" cy="171.1" r="8.7"/>
          </g>
          <line class="cls-3" x1="432.6" y1="519.1" x2="432.6" y2="589.6"/>
          <g>
            <line class="cls-3" x1="432.6" y1="589.6" x2="497.4" y2="589.6"/>
            <path class="cls-9" d="M497.4,598.2c4.8,0,8.7-3.9,8.7-8.6s-3.9-8.6-8.7-8.6-8.7,3.9-8.7,8.6,3.9,8.6,8.7,8.6Z"/>
          </g>
          <line class="cls-5" x1="584.8" y1="405.1" x2="584.8" y2="451.6"/>
          <g>
            <line class="cls-5" x1="584.8" y1="451.6" x2="637.6" y2="451.6"/>
            <circle class="cls-10" cx="637.6" cy="451.6" r="8.7" transform="translate(-86.4 157.9) rotate(-13.2)"/>
          </g>
          <line class="cls-3" x1="591.4" y1="222.1" x2="649.1" y2="222.1"/>
          <g>
            <line class="cls-3" x1="649.1" y1="222.1" x2="649.1" y2="171.1"/>
            <circle class="cls-9" cx="649.1" cy="171.1" r="8.7"/>
          </g>
          <line class="cls-5" x1="267.1" y1="360.6" x2="403.1" y2="360.6"/>
          <line class="cls-5" x1="403.1" y1="360.6" x2="403.1" y2="156.1"/>
          <line class="cls-5" x1="403.1" y1="156.1" x2="485.6" y2="156.1"/>
          <g>
            <line class="cls-5" x1="485.6" y1="156.1" x2="485.6" y2="24.1"/>
            <circle class="cls-10" cx="485.6" cy="24.1" r="8.7"/>
          </g>
          <line class="cls-3" x1="225.6" y1="537.6" x2="325.6" y2="469.1"/>
          <line class="cls-3" x1="325.6" y1="469.1" x2="452.6" y2="470.1"/>
          <g>
            <line class="cls-3" x1="452.6" y1="470.1" x2="500.6" y2="389.3"/>
            <path class="cls-9" d="M508,393.7c2.4-4.1,1.1-9.4-3-11.9-4.1-2.4-9.4-1.1-11.8,3s-1.1,9.4,3,11.9c4.1,2.4,9.4,1.1,11.8-3Z"/>
          </g>
          <g>
            <line class="cls-1" x1="459.6" y1="252.1" x2="459.6" y2="414.1"/>
            <circle class="cls-11" cx="459.6" cy="414.2" r="8.7" transform="translate(-60.5 79.2) rotate(-9.2)"/>
          </g>
          <g>
            <line class="cls-1" x1="459.6" y1="252.1" x2="551.6" y2="252.1"/>
            <circle class="cls-11" cx="551.6" cy="252.1" r="8.7"/>
          </g>
          <g>
            <line class="cls-3" x1="325.6" y1="442.6" x2="325.6" y2="420.1"/>
            <circle class="cls-9" cx="325.6" cy="442.6" r="8.7" transform="translate(-180.2 657.3) rotate(-76.7)"/>
          </g>
          <line class="cls-3" x1="325.6" y1="420.1" x2="444.4" y2="420.1"/>
          <g>
            <line class="cls-3" x1="444.4" y1="420.1" x2="444.4" y2="442.6"/>
            <circle class="cls-9" cx="444.4" cy="442.6" r="8.7" transform="translate(-178.5 515.8) rotate(-51.6)"/>
          </g>
          <g>
            <line class="cls-3" x1="577.4" y1="274.6" x2="577.4" y2="381.1"/>
            <path class="cls-9" d="M568.7,274.6c0-4.8,3.9-8.7,8.7-8.7s8.7,3.9,8.7,8.7-3.9,8.7-8.7,8.7-8.7-3.9-8.7-8.7Z"/>
          </g>
          <g>
            <line class="cls-3" x1="577.4" y1="381.1" x2="532.1" y2="381.1"/>
            <path class="cls-9" d="M532.1,372.4c-4.8,0-8.7,3.9-8.7,8.6s3.9,8.6,8.7,8.6,8.7-3.9,8.7-8.6-3.9-8.6-8.7-8.6Z"/>
          </g>
          <line class="cls-7" x1="611.2" y1="249.1" x2="611.2" y2="426.1"/>
          <g>
            <line class="cls-7" x1="611.2" y1="426.6" x2="656.6" y2="426.6"/>
            <path class="cls-15" d="M656.6,435.3c4.8,0,8.7-3.9,8.7-8.6s-3.9-8.6-8.7-8.6-8.7,3.9-8.7,8.6,3.9,8.6,8.7,8.6Z"/>
          </g>
          <g>
            <line class="cls-7" x1="611.2" y1="249.1" x2="656.6" y2="249.1"/>
            <path class="cls-15" d="M656.6,257.7c4.8,0,8.7-3.9,8.7-8.7s-3.9-8.7-8.7-8.7-8.7,3.9-8.7,8.7,3.9,8.7,8.7,8.7Z"/>
          </g>
          <g>
            <line class="cls-3" x1="485.6" y1="279.6" x2="485.6" y2="360.6"/>
            <circle class="cls-9" cx="485.6" cy="360.6" r="8.7"/>
          </g>
          <g>
            <line class="cls-3" x1="485.6" y1="278.6" x2="539.8" y2="278.6"/>
            <circle class="cls-9" cx="539.8" cy="278.6" r="8.7"/>
          </g>
          <line class="cls-1" x1="168.6" y1="494.1" x2="249.6" y2="442.6"/>
          <line class="cls-1" x1="249.6" y1="442.6" x2="249.6" y2="258.4"/>
          <line class="cls-1" x1="249.6" y1="258.4" x2="211.6" y2="258.4"/>
          <g>
            <line class="cls-1" x1="211.6" y1="258.4" x2="211.6" y2="70.6"/>
            <circle class="cls-11" cx="211.6" cy="70.6" r="8.7"/>
          </g>
          <line class="cls-3" x1="155.6" y1="487.6" x2="230.6" y2="439.3"/>
          <line class="cls-3" x1="230.6" y1="438.3" x2="230.6" y2="274.6"/>
          <line class="cls-3" x1="230.6" y1="274.6" x2="200.6" y2="274.6"/>
          <line class="cls-3" x1="200.6" y1="274.6" x2="200.6" y2="132.1"/>
          <line class="cls-3" x1="200.6" y1="132.1" x2="140.6" y2="132.1"/>
          <g>
            <line class="cls-3" x1="140.6" y1="132.1" x2="140.6" y2="24.1"/>
            <circle class="cls-9" cx="140.6" cy="24.1" r="8.6" transform="translate(24.2 106.5) rotate(-45)"/>
          </g>
          <g>
            <line class="cls-7" x1="230.6" y1="102.1" x2="230.6" y2="243.1"/>
            <circle class="cls-15" cx="230.6" cy="102.1" r="8.6" transform="translate(78.1 303) rotate(-76.7)"/>
          </g>
          <g>
            <line class="cls-7" x1="230.6" y1="243.1" x2="291.6" y2="243.1"/>
            <circle class="cls-15" cx="291.7" cy="243" r="8.6" transform="translate(-44.1 420.2) rotate(-67.6)"/>
          </g>
          <g>
            <line class="cls-3" x1="267.1" y1="269.4" x2="267.1" y2="350.5"/>
            <circle class="cls-9" cx="267" cy="269.3" r="8.6" transform="translate(-83.1 123.5) rotate(-22.6)"/>
          </g>
          <line class="cls-3" x1="267.1" y1="350.5" x2="393.1" y2="350.5"/>
          <g>
            <line class="cls-3" x1="393.1" y1="350.5" x2="393.1" y2="132.1"/>
            <path class="cls-9" d="M401.8,132.1c0-4.8-3.9-8.7-8.7-8.7s-8.7,3.9-8.7,8.7,3.9,8.7,8.7,8.7,8.7-3.9,8.7-8.7Z"/>
          </g>
          <g>
            <line class="cls-3" x1="297.4" y1="288.1" x2="297.4" y2="337.6"/>
            <circle class="cls-9" cx="297.3" cy="288.1" r="8.6" transform="translate(-51.2 511.6) rotate(-76.8)"/>
          </g>
          <line class="cls-3" x1="297.4" y1="337.6" x2="371.6" y2="337.6"/>
          <g>
            <line class="cls-3" x1="371.6" y1="337.6" x2="371.6" y2="203.3"/>
            <circle class="cls-9" cx="371.7" cy="203.4" r="8.7"/>
          </g>
          <g>
            <line class="cls-3" x1="418.6" y1="141.3" x2="466.6" y2="141.3"/>
            <circle class="cls-9" cx="418.6" cy="141.3" r="8.7"/>
          </g>
          <g>
            <line class="cls-3" x1="466.6" y1="141.1" x2="466.6" y2="67.6"/>
            <circle class="cls-9" cx="466.6" cy="67.6" r="8.7"/>
          </g>
          <line class="cls-3" x1="140.7" y1="483.8" x2="215.6" y2="434.3"/>
          <line class="cls-3" x1="215.6" y1="434.3" x2="215.6" y2="288.1"/>
          <line class="cls-3" x1="215.6" y1="288.1" x2="179.6" y2="288.1"/>
          <line class="cls-3" x1="179.6" y1="288.1" x2="179.6" y2="156.1"/>
          <line class="cls-3" x1="179.6" y1="156.1" x2="26.6" y2="156.1"/>
          <g>
            <line class="cls-3" x1="26.6" y1="156.1" x2="26.6" y2="70.6"/>
            <circle class="cls-9" cx="26.6" cy="70.6" r="8.7"/>
          </g>
          <g>
            <line class="cls-5" x1="43.4" y1="24.1" x2="43.4" y2="141.1"/>
            <circle class="cls-10" cx="43.4" cy="24.1" r="8.6" transform="translate(10 60.8) rotate(-76.7)"/>
          </g>
          <line class="cls-5" x1="43.8" y1="141.1" x2="123.5" y2="141.1"/>
          <g>
            <line class="cls-5" x1="123.5" y1="141.1" x2="123.5" y2="70.6"/>
            <circle class="cls-10" cx="123.5" cy="70.6" r="8.7"/>
          </g>
          <line class="cls-5" x1="127.6" y1="557.6" x2="108.9" y2="548.3"/>
          <line class="cls-5" x1="108.9" y1="548.3" x2="108.9" y2="327.8"/>
          <line class="cls-5" x1="108.9" y1="327.8" x2="43.7" y2="327.8"/>
          <g>
            <line class="cls-5" x1="43.7" y1="327.8" x2="43.8" y2="196.6"/>
            <path class="cls-10" d="M52.4,196.6c0-4.8-3.9-8.7-8.6-8.7s-8.6,3.9-8.6,8.7,3.9,8.7,8.6,8.7,8.6-3.9,8.6-8.7Z"/>
          </g>
          <line class="cls-3" x1="115.6" y1="567.6" x2="97.2" y2="558.1"/>
          <line class="cls-3" x1="96.4" y1="558.1" x2="96.4" y2="350.5"/>
          <g>
            <line class="cls-3" x1="95.6" y1="350.5" x2="26.6" y2="350.5"/>
            <circle class="cls-9" cx="26.6" cy="350.5" r="8.6"/>
          </g>
          <g>
            <line class="cls-1" x1="46.1" y1="385.1" x2="85" y2="385.1"/>
            <circle class="cls-11" cx="46.1" cy="385.1" r="8.6"/>
          </g>
          <line class="cls-1" x1="85" y1="385.1" x2="85" y2="549"/>
          <g>
            <line class="cls-1" x1="85" y1="549" x2="40.8" y2="549"/>
            <circle class="cls-11" cx="40.8" cy="549" r="8.6"/>
          </g>
          <g>
            <line class="cls-7" x1="26.6" y1="576.6" x2="103.1" y2="576.6"/>
            <circle class="cls-15" cx="26.6" cy="576.6" r="8.6"/>
          </g>
          <line class="cls-7" x1="103.1" y1="577.6" x2="103.1" y2="675.5"/>
          <g>
            <line class="cls-3" x1="60.4" y1="172.6" x2="61.1" y2="309.8"/>
            <path class="cls-9" d="M51.8,172.6c0-4.8,3.8-8.7,8.6-8.7s8.7,3.8,8.7,8.6c0,4.8-3.8,8.7-8.6,8.7-4.8,0-8.7-3.8-8.7-8.6h0Z"/>
          </g>
          <line class="cls-3" x1="61.1" y1="309.8" x2="128.6" y2="309.8"/>
          <g>
            <line class="cls-3" x1="128.6" y1="309.8" x2="128.6" y2="451.6"/>
            <circle class="cls-9" cx="128.6" cy="451.6" r="8.6"/>
          </g>
          <g>
            <line class="cls-3" x1="76.3" y1="229.6" x2="76.3" y2="295.6"/>
            <circle class="cls-9" cx="76.3" cy="229.6" r="8.6" transform="translate(-162.5 268.1) rotate(-80.8)"/>
          </g>
          <g>
            <line class="cls-3" x1="76.3" y1="295.6" x2="135.6" y2="295.6"/>
            <circle class="cls-9" cx="135.7" cy="295.5" r="8.6" transform="translate(-189.3 308.5) rotate(-67.6)"/>
          </g>
          <g>
            <line class="cls-3" x1="83.6" y1="183.8" x2="166.9" y2="183.8"/>
            <circle class="cls-9" cx="83.6" cy="183.8" r="8.6" transform="translate(-105.5 113) rotate(-45)"/>
          </g>
          <line class="cls-3" x1="166.9" y1="184.6" x2="166.9" y2="270.5"/>
          <g>
            <line class="cls-3" x1="166.9" y1="270.5" x2="113" y2="270.5"/>
            <circle class="cls-9" cx="113" cy="270.5" r="8.7"/>
          </g>
          <g>
            <line class="cls-3" x1="165.4" y1="309.8" x2="200.6" y2="309.8"/>
            <circle class="cls-9" cx="165.3" cy="309.9" r="8.6" transform="translate(-176.3 228.6) rotate(-48.5)"/>
          </g>
          <line class="cls-3" x1="200.6" y1="309.8" x2="200.6" y2="420.1"/>
          <g>
            <line class="cls-3" x1="200.6" y1="420.1" x2="159.1" y2="442.6"/>
            <path class="cls-9" d="M155,435c-4.2,2.3-5.8,7.5-3.5,11.7s7.5,5.8,11.7,3.5,5.8-7.5,3.5-11.7-7.5-5.8-11.7-3.5Z"/>
          </g>
        </g>
        <g>
          <line class="cls-6" x1="175.6" y1="679.5" x2="175.6" y2="508.6"/>
          <line class="cls-4" x1="189.6" y1="679.5" x2="189.6" y2="522.6"/>
          <line class="cls-2" x1="164.6" y1="679.5" x2="164.6" y2="498.6"/>
          <line class="cls-8" x1="207.6" y1="679.5" x2="207.6" y2="532.6"/>
          <line class="cls-4" x1="151.6" y1="679.5" x2="151.6" y2="491.6"/>
          <line class="cls-4" x1="235.6" y1="679.5" x2="235.6" y2="550.6"/>
          <line class="cls-4" x1="221.6" y1="679.5" x2="221.6" y2="541.6"/>
          <line class="cls-4" x1="136.6" y1="679.5" x2="136.6" y2="488.6"/>
          <line class="cls-6" x1="245.6" y1="679.5" x2="245.6" y2="562.6"/>
          <line class="cls-6" x1="123.6" y1="679.5" x2="123.6" y2="561.6"/>
          <line class="cls-4" x1="259.6" y1="679.5" x2="259.6" y2="581.6"/>
          <line class="cls-4" x1="111.6" y1="679.5" x2="111.6" y2="571.6"/>
          <line class="cls-4" x1="259.6" y1="581.6" x2="342.6" y2="523.1"/>
          <line class="cls-4" x1="342.6" y1="523.1" x2="428.6" y2="523.1"/>
          <line class="cls-6" x1="245.6" y1="562.1" x2="333.6" y2="502.1"/>
          <line class="cls-6" x1="333.6" y1="502.1" x2="464.1" y2="502.1"/>
          <line class="cls-6" x1="464.1" y1="502.1" x2="522.6" y2="409.1"/>
          <line class="cls-4" x1="235.6" y1="550.3" x2="321.6" y2="491.6"/>
          <line class="cls-4" x1="321.6" y1="491.6" x2="456.6" y2="491.6"/>
          <line class="cls-4" x1="456.6" y1="491.6" x2="510.6" y2="401.6"/>
          <line class="cls-8" x1="207.6" y1="532.1" x2="300.1" y2="469.1"/>
          <line class="cls-8" x1="300.1" y1="469.1" x2="300.1" y2="409.6"/>
          <line class="cls-4" x1="189.6" y1="522.1" x2="275.6" y2="467.1"/>
          <line class="cls-4" x1="275.6" y1="466.1" x2="275.6" y2="393.1"/>
          <line class="cls-6" x1="175.6" y1="508.1" x2="263.1" y2="455.6"/>
          <line class="cls-6" x1="263.1" y1="455.6" x2="263.1" y2="365.1"/>
          <line class="cls-6" x1="522.6" y1="409.1" x2="580.8" y2="409.1"/>
          <line class="cls-4" x1="510.6" y1="401.6" x2="586.8" y2="401.6"/>
          <line class="cls-4" x1="587.4" y1="401.6" x2="587.4" y2="226.1"/>
          <line class="cls-8" x1="300.1" y1="409.1" x2="435.1" y2="409.1"/>
          <line class="cls-8" x1="435.1" y1="409.1" x2="435.1" y2="226.1"/>
          <line class="cls-4" x1="275.6" y1="393.3" x2="414.6" y2="393.3"/>
          <line class="cls-4" x1="414.6" y1="394.1" x2="414.6" y2="175.1"/>
          <line class="cls-4" x1="414.6" y1="175.1" x2="496.6" y2="175.1"/>
          <g>
            <line class="cls-4" x1="496.6" y1="175.1" x2="496.6" y2="59.6"/>
            <circle class="cls-9" cx="496.5" cy="59.5" r="7.5"/>
          </g>
          <line class="cls-8" x1="435.1" y1="226.1" x2="528.1" y2="226.1"/>
          <g>
            <line class="cls-8" x1="528.1" y1="226.1" x2="528.1" y2="175.1"/>
            <circle class="cls-15" cx="528.1" cy="175.1" r="7.5"/>
          </g>
          <line class="cls-4" x1="428.6" y1="523.1" x2="428.6" y2="593.6"/>
          <g>
            <line class="cls-4" x1="428.6" y1="593.6" x2="493.4" y2="593.6"/>
            <circle class="cls-9" cx="493.4" cy="593.6" r="7.5" transform="translate(-186.9 228.9) rotate(-22.1)"/>
          </g>
          <line class="cls-6" x1="580.8" y1="409.1" x2="580.8" y2="455.6"/>
          <g>
            <line class="cls-6" x1="580.8" y1="455.6" x2="633.6" y2="455.6"/>
            <circle class="cls-10" cx="633.6" cy="455.6" r="7.5"/>
          </g>
          <line class="cls-4" x1="587.4" y1="226.1" x2="645.1" y2="226.1"/>
          <g>
            <line class="cls-4" x1="645.1" y1="226.1" x2="645.1" y2="175.1"/>
            <circle class="cls-9" cx="645.1" cy="175.1" r="7.5"/>
          </g>
          <line class="cls-6" x1="263.1" y1="364.6" x2="399.1" y2="364.6"/>
          <line class="cls-6" x1="399.1" y1="364.6" x2="399.1" y2="160.1"/>
          <line class="cls-6" x1="399.1" y1="160.1" x2="481.6" y2="160.1"/>
          <g>
            <line class="cls-6" x1="481.6" y1="160.1" x2="481.6" y2="28.1"/>
            <circle class="cls-10" cx="481.6" cy="28.1" r="7.5"/>
          </g>
          <line class="cls-4" x1="221.6" y1="541.6" x2="321.6" y2="473.1"/>
          <line class="cls-4" x1="321.6" y1="473.1" x2="448.6" y2="474.1"/>
          <g>
            <line class="cls-4" x1="448.6" y1="474.1" x2="496.6" y2="393.3"/>
            <path class="cls-9" d="M503.1,397.2c2.1-3.6,1-8.2-2.6-10.3-3.6-2.1-8.2-1-10.3,2.6s-1,8.2,2.6,10.3c3.6,2.1,8.2,1,10.3-2.6h0Z"/>
          </g>
          <g>
            <line class="cls-2" x1="455.6" y1="256.1" x2="455.6" y2="418.1"/>
            <circle class="cls-11" cx="455.6" cy="418.1" r="7.5" transform="translate(-104.6 680.1) rotate(-67.6)"/>
          </g>
          <g>
            <line class="cls-2" x1="455.6" y1="256.1" x2="547.6" y2="256.1"/>
            <circle class="cls-11" cx="547.6" cy="256.1" r="7.5"/>
          </g>
          <g>
            <line class="cls-4" x1="321.6" y1="446.6" x2="321.6" y2="424.1"/>
            <circle class="cls-9" cx="321.6" cy="446.6" r="7.5"/>
          </g>
          <line class="cls-4" x1="321.6" y1="424.1" x2="440.4" y2="424.1"/>
          <g>
            <line class="cls-4" x1="440.4" y1="424.1" x2="440.4" y2="446.6"/>
            <path class="cls-9" d="M432.9,446.6c0,4.1,3.4,7.5,7.5,7.5s7.5-3.4,7.5-7.5-3.4-7.5-7.5-7.5-7.5,3.4-7.5,7.5Z"/>
          </g>
          <g>
            <line class="cls-4" x1="573.4" y1="278.6" x2="573.4" y2="385.1"/>
            <path class="cls-9" d="M565.9,278.6c0-4.2,3.4-7.5,7.5-7.5s7.5,3.4,7.5,7.5-3.4,7.5-7.5,7.5-7.5-3.4-7.5-7.5Z"/>
          </g>
          <g>
            <line class="cls-4" x1="573.4" y1="385.1" x2="528.1" y2="385.1"/>
            <circle class="cls-9" cx="528.1" cy="385" r="7.5" transform="translate(-74.5 132.1) rotate(-13.3)"/>
          </g>
          <line class="cls-8" x1="607.2" y1="253.1" x2="607.2" y2="430.1"/>
          <g>
            <line class="cls-8" x1="607.2" y1="430.6" x2="652.6" y2="430.6"/>
            <circle class="cls-15" cx="652.6" cy="430.6" r="7.5" transform="translate(-113.4 587.6) rotate(-45)"/>
          </g>
          <g>
            <line class="cls-8" x1="607.2" y1="253.1" x2="652.6" y2="253.1"/>
            <circle class="cls-15" cx="652.6" cy="253.1" r="7.5"/>
          </g>
          <g>
            <line class="cls-4" x1="481.6" y1="283.6" x2="481.6" y2="364.6"/>
            <circle class="cls-9" cx="481.6" cy="364.6" r="7.5"/>
          </g>
          <g>
            <line class="cls-4" x1="481.6" y1="282.6" x2="535.8" y2="282.6"/>
            <circle class="cls-9" cx="535.8" cy="282.6" r="7.5"/>
          </g>
          <line class="cls-2" x1="164.6" y1="498.1" x2="245.6" y2="446.6"/>
          <line class="cls-2" x1="245.6" y1="446.6" x2="245.6" y2="262.4"/>
          <line class="cls-2" x1="245.6" y1="262.4" x2="207.6" y2="262.4"/>
          <g>
            <line class="cls-2" x1="207.6" y1="262.4" x2="207.6" y2="74.6"/>
            <circle class="cls-11" cx="207.6" cy="74.6" r="7.5"/>
          </g>
          <line class="cls-4" x1="151.6" y1="491.6" x2="226.6" y2="443.3"/>
          <line class="cls-4" x1="226.6" y1="442.3" x2="226.6" y2="278.6"/>
          <line class="cls-4" x1="226.6" y1="278.6" x2="196.6" y2="278.6"/>
          <line class="cls-4" x1="196.6" y1="278.6" x2="196.6" y2="136.1"/>
          <line class="cls-4" x1="196.6" y1="136.1" x2="136.6" y2="136.1"/>
          <g>
            <line class="cls-4" x1="136.6" y1="136.1" x2="136.6" y2="28.1"/>
            <circle class="cls-9" cx="136.6" cy="28.1" r="7.5" transform="translate(58.6 143.7) rotate(-67.6)"/>
          </g>
          <g>
            <line class="cls-8" x1="226.6" y1="106.1" x2="226.6" y2="247.1"/>
            <circle class="cls-15" cx="226.7" cy="106" r="7.5" transform="translate(71.2 302.2) rotate(-76.7)"/>
          </g>
          <g>
            <line class="cls-8" x1="226.6" y1="247.1" x2="287.6" y2="247.1"/>
            <circle class="cls-15" cx="287.6" cy="247.1" r="7.5" transform="translate(-35.9 49.4) rotate(-9.2)"/>
          </g>
          <g>
            <line class="cls-4" x1="263.1" y1="273.4" x2="263.1" y2="354.5"/>
            <circle class="cls-9" cx="263.1" cy="273.3" r="7.5" transform="translate(-48.7 489.4) rotate(-80.8)"/>
          </g>
          <line class="cls-4" x1="263.1" y1="354.5" x2="389.1" y2="354.5"/>
          <g>
            <line class="cls-4" x1="389.1" y1="354.5" x2="389.1" y2="136.1"/>
            <circle class="cls-9" cx="389.1" cy="136.1" r="7.5"/>
          </g>
          <g>
            <line class="cls-4" x1="293.4" y1="292.1" x2="293.4" y2="341.6"/>
            <circle class="cls-9" cx="293.4" cy="292.1" r="7.5" transform="translate(-58.1 510.7) rotate(-76.8)"/>
          </g>
          <line class="cls-4" x1="293.4" y1="341.6" x2="367.6" y2="341.6"/>
          <g>
            <line class="cls-4" x1="367.6" y1="341.6" x2="367.6" y2="207.3"/>
            <circle class="cls-9" cx="367.6" cy="207.3" r="7.5"/>
          </g>
          <g>
            <line class="cls-4" x1="414.6" y1="145.3" x2="462.6" y2="145.3"/>
            <circle class="cls-9" cx="414.6" cy="145.3" r="7.5"/>
          </g>
          <g>
            <line class="cls-4" x1="462.6" y1="145.1" x2="462.6" y2="71.6"/>
            <circle class="cls-9" cx="462.5" cy="71.5" r="7.5"/>
          </g>
          <line class="cls-4" x1="136.7" y1="487.8" x2="211.6" y2="438.3"/>
          <line class="cls-4" x1="211.6" y1="438.3" x2="211.6" y2="292.1"/>
          <line class="cls-4" x1="211.6" y1="292.1" x2="175.6" y2="292.1"/>
          <line class="cls-4" x1="175.6" y1="292.1" x2="175.6" y2="160.1"/>
          <line class="cls-4" x1="175.6" y1="160.1" x2="22.6" y2="160.1"/>
          <g>
            <line class="cls-4" x1="22.6" y1="160.1" x2="22.6" y2="74.6"/>
            <circle class="cls-9" cx="22.6" cy="74.6" r="7.5"/>
          </g>
          <g>
            <line class="cls-6" x1="39.4" y1="28.1" x2="39.4" y2="145.1"/>
            <circle class="cls-10" cx="39.4" cy="28.1" r="7.5" transform="translate(-7.7 17.2) rotate(-22.5)"/>
          </g>
          <line class="cls-6" x1="39.8" y1="145.1" x2="119.5" y2="145.1"/>
          <g>
            <line class="cls-6" x1="119.5" y1="145.1" x2="119.5" y2="74.6"/>
            <circle class="cls-10" cx="119.5" cy="74.6" r="7.5"/>
          </g>
          <line class="cls-6" x1="123.6" y1="561.6" x2="104.9" y2="552.3"/>
          <line class="cls-6" x1="104.9" y1="552.3" x2="104.9" y2="331.8"/>
          <line class="cls-6" x1="104.9" y1="331.8" x2="39.7" y2="331.8"/>
          <g>
            <line class="cls-6" x1="39.7" y1="331.8" x2="39.8" y2="200.6"/>
            <path class="cls-10" d="M47.3,200.6c0-4.2-3.4-7.5-7.5-7.5s-7.5,3.4-7.5,7.5,3.4,7.5,7.5,7.5,7.5-3.4,7.5-7.5Z"/>
          </g>
          <line class="cls-4" x1="111.6" y1="571.6" x2="93.2" y2="562.1"/>
          <line class="cls-4" x1="92.4" y1="562.1" x2="92.4" y2="354.5"/>
          <g>
            <line class="cls-4" x1="91.6" y1="354.5" x2="22.6" y2="354.5"/>
            <circle class="cls-9" cx="22.6" cy="354.5" r="7.5"/>
          </g>
          <g>
            <line class="cls-2" x1="42.1" y1="389.1" x2="81" y2="389.1"/>
            <circle class="cls-11" cx="42.1" cy="389.1" r="7.5"/>
          </g>
          <line class="cls-2" x1="81" y1="389.1" x2="81" y2="553"/>
          <g>
            <line class="cls-2" x1="81" y1="553" x2="36.8" y2="553"/>
            <circle class="cls-11" cx="36.8" cy="553" r="7.5"/>
          </g>
          <g>
            <line class="cls-8" x1="22.6" y1="580.6" x2="99.1" y2="580.6"/>
            <circle class="cls-15" cx="22.6" cy="580.6" r="7.5"/>
          </g>
          <line class="cls-8" x1="99.1" y1="581.6" x2="99.1" y2="679.5"/>
          <g>
            <line class="cls-4" x1="56.4" y1="176.6" x2="57.1" y2="313.8"/>
            <path class="cls-9" d="M48.9,176.6c0-4.2,3.3-7.5,7.5-7.6s7.5,3.3,7.6,7.5c0,4.2-3.3,7.5-7.5,7.6-4.1,0-7.5-3.3-7.6-7.5h0Z"/>
          </g>
          <line class="cls-4" x1="57.1" y1="313.8" x2="124.6" y2="313.8"/>
          <g>
            <line class="cls-4" x1="124.6" y1="313.8" x2="124.6" y2="455.6"/>
            <circle class="cls-9" cx="124.6" cy="455.6" r="7.5"/>
          </g>
          <g>
            <line class="cls-4" x1="72.3" y1="233.6" x2="72.3" y2="299.6"/>
            <circle class="cls-9" cx="72.3" cy="233.6" r="7.5" transform="translate(-83.9 45.5) rotate(-22.5)"/>
          </g>
          <g>
            <line class="cls-4" x1="72.3" y1="299.6" x2="131.6" y2="299.6"/>
            <circle class="cls-9" cx="131.6" cy="299.6" r="7.5" transform="translate(-46.4 25) rotate(-9.2)"/>
          </g>
          <g>
            <line class="cls-4" x1="79.6" y1="187.8" x2="162.9" y2="187.8"/>
            <circle class="cls-9" cx="79.6" cy="187.8" r="7.5"/>
          </g>
          <line class="cls-4" x1="162.9" y1="188.6" x2="162.9" y2="274.5"/>
          <g>
            <line class="cls-4" x1="162.9" y1="274.5" x2="109" y2="274.5"/>
            <circle class="cls-9" cx="109" cy="274.5" r="7.5"/>
          </g>
          <g>
            <line class="cls-4" x1="161.4" y1="313.8" x2="196.6" y2="313.8"/>
            <circle class="cls-9" cx="161.4" cy="313.8" r="7.5"/>
          </g>
          <line class="cls-4" x1="196.6" y1="313.8" x2="196.6" y2="424.1"/>
          <g>
            <line class="cls-4" x1="196.6" y1="424.1" x2="155.1" y2="446.6"/>
            <path class="cls-9" d="M151.5,440c-3.6,2-5,6.5-3,10.2,2,3.6,6.5,5,10.2,3,3.6-2,5-6.5,3-10.2-2-3.6-6.5-5-10.2-3Z"/>
          </g>
        </g>
      </g>
    </g>
  </g>
</svg>